<svg width="145" height="49" viewBox="0 0 145 49" fill="none" xmlns="http://www.w3.org/2000/svg">
<path d="M29.8011 16.7446C29.5628 16.2202 29.5866 15.672 29.5866 15.1239C29.5866 14.7187 29.7534 14.6472 30.1109 14.7187C31.3741 14.9571 32.6611 15.0285 33.9481 14.9332C37.5708 14.6472 40.6453 13.1934 43.1716 10.5717C43.4814 10.238 43.6483 10.1427 43.9343 10.5955C44.5539 11.5489 45.2213 12.4784 45.6979 13.5271C45.5311 13.7892 45.2689 13.813 45.0068 13.8607C40.2163 14.814 35.4019 15.7435 30.6114 16.6969C30.3254 16.7445 30.0633 16.8399 29.8011 16.7446Z" fill="#E74214"/>
<path d="M15.2372 22.1784C14.7128 23.1794 13.974 24.0374 13.116 24.7762C12.83 25.0384 12.7108 24.9669 12.5917 24.6094C10.7565 19.8189 7.37218 16.7682 2.41484 15.4574C2.08118 15.362 1.98584 15.2667 2.15268 14.9569C2.34334 14.6232 2.51018 14.2657 2.67701 13.9082C3.51118 14.361 4.27384 14.933 5.06034 15.4335C8.25401 17.5309 11.4715 19.6044 14.6652 21.6779C14.8797 21.8209 15.1418 21.9162 15.2372 22.1784Z" fill="#E74214"/>
<path d="M29.3703 23.8945C29.7755 26.111 28.6791 28.3275 26.6533 29.3047C24.6275 30.3057 22.1488 29.829 20.6473 28.1368C20.5758 28.0653 20.5281 27.97 20.4805 27.8747C20.5281 27.5648 20.7665 27.7078 20.9095 27.7317C21.3385 27.8032 21.7675 27.8985 22.2203 27.9462C23.0545 28.0653 23.841 27.9462 24.6275 27.7078C24.6751 27.684 24.7228 27.6602 24.7705 27.6602C25.3425 27.6125 25.7953 27.3027 26.2481 27.0405C27.3683 26.4447 28.2263 25.5867 28.7745 24.4188C28.9175 24.1805 28.9175 23.7753 29.3703 23.8945Z" fill="#E74214"/>
<path d="M40.2157 6.56781C41.1929 7.30664 41.9794 8.21231 42.7897 9.11797C43.0042 9.35631 42.8612 9.47547 42.6944 9.6423C41.2167 11.1438 39.5484 12.3355 37.5464 13.0028C37.1889 12.9075 37.4034 12.6691 37.4511 12.5023C37.6656 11.9065 37.9277 11.3106 38.1661 10.7386C38.6666 9.49931 39.1432 8.25997 39.6676 7.04447C39.7629 6.78231 39.8106 6.42481 40.2157 6.56781Z" fill="#E74214"/>
<path d="M0.556641 20.1526C0.723474 18.8894 1.10481 17.6977 1.50997 16.5061C1.55764 16.3392 1.62914 16.2439 1.84364 16.2916C3.89331 16.8159 5.79997 17.6739 7.42064 19.0562C7.34914 19.5329 6.94397 19.4852 6.65797 19.5329C5.34714 19.7236 4.01247 19.9142 2.70164 20.0811C2.27264 20.1287 1.81981 20.2002 1.39081 20.2717C1.10481 20.3194 0.818807 20.3671 0.556641 20.1526Z" fill="#E74214"/>
<path d="M32.2787 47.4417C31.087 47.9184 29.8477 48.2282 28.6083 48.4427C28.3938 48.4904 28.2747 48.4666 28.227 48.2282C27.655 46.1547 27.4882 44.0812 27.8695 41.9601C28.1317 41.8647 28.2747 42.0554 28.3938 42.2222C29.657 43.7952 30.8963 45.3921 32.1357 46.9889C32.231 47.1319 32.3502 47.2511 32.2787 47.4417Z" fill="#E74214"/>
<path d="M25.6055 33.3091C27.1785 33.0946 28.68 33.2138 30.0623 34.0956C30.3483 34.2863 30.396 34.4293 30.1338 34.7153C28.5846 36.4551 27.536 38.481 26.9878 40.7451C26.9878 40.769 26.9401 40.7928 26.9401 40.8405C26.6541 40.626 26.6065 40.3161 26.5826 39.9825C26.392 38.0758 26.1775 36.1691 26.0106 34.2625C25.963 33.905 25.8915 33.5713 25.6055 33.3091Z" fill="#E74214"/>
<path d="M8.61174 31.998C8.89774 32.1887 9.18374 32.3794 9.44591 32.57C9.68424 32.9275 9.66041 33.3565 9.70807 33.7617C9.97024 36.4072 10.2562 39.0289 10.5184 41.6744C10.5422 41.9604 10.6376 42.2464 10.3516 42.4609C10.0656 42.5562 9.94641 42.3655 9.80341 42.1749C9.56507 41.8412 9.35057 41.4599 9.13607 41.1024C8.99307 40.7925 8.77857 40.5304 8.68324 40.1967C8.61174 39.8869 8.46874 39.6247 8.37341 39.3149C8.30191 39.0527 8.20657 38.8144 8.13507 38.5522C8.06357 38.2424 7.99207 37.9087 7.94441 37.5989C7.92057 37.4082 7.87291 37.2175 7.84907 37.003C7.82524 36.86 7.82524 36.6932 7.82524 36.5502C7.84907 35.9544 7.80141 35.3585 7.82524 34.7627C7.84907 34.429 7.92057 34.1192 7.96824 33.7855C8.11124 33.3804 8.11124 32.9514 8.27807 32.5462C8.37341 32.3794 8.39724 32.1172 8.61174 31.998Z" fill="#E74214"/>
<path d="M30.4666 18.2225C30.2998 18.0556 30.2044 17.8411 30.1568 17.6028C30.0376 17.2691 30.2998 17.2453 30.5143 17.1976C31.0386 17.0546 31.563 17.007 32.0873 16.8878C36.5441 15.9821 41.0248 15.1241 45.4816 14.2423C45.6723 14.1946 45.8629 14.1231 46.0536 14.2661C46.2204 14.5045 46.3873 14.719 46.3873 15.005C46.1966 15.3386 45.8391 15.3148 45.5531 15.3863C40.8341 16.292 36.139 17.2691 31.4438 18.151C31.0863 18.2225 30.7765 18.4131 30.4666 18.2225Z" fill="#E74214"/>
<path d="M46.0074 14.265C43.7433 14.8132 41.4314 15.1945 39.1196 15.6474C36.7124 16.1479 34.2814 16.6007 31.8743 17.0774C31.3976 17.1727 30.8971 17.268 30.4204 17.3395C30.2536 17.3634 30.1583 17.411 30.1345 17.5779C29.9438 17.3157 29.8484 17.0297 29.8008 16.696C31.0163 16.4338 32.2318 16.1717 33.4473 15.9333C37.1176 15.1945 40.8118 14.4795 44.5059 13.7407C44.9111 13.6692 45.2924 13.55 45.6976 13.4785C45.8168 13.7645 45.9836 13.979 46.0074 14.265Z" fill="#E74214"/>
<path d="M30.4668 18.2214C32.7786 17.7447 35.0905 17.2919 37.4023 16.8152C40.2861 16.2432 43.17 15.6712 46.0538 15.0992C46.1491 15.0754 46.2445 15.0277 46.3636 15.0039C46.5305 15.2422 46.6496 15.4806 46.6973 15.7427C46.5305 15.9572 46.2921 15.9572 46.0776 16.0049C41.1441 16.9582 36.2345 17.9592 31.301 18.9126C31.1818 18.9364 31.0626 18.9602 30.9196 18.9364C30.729 18.7457 30.5145 18.5312 30.4668 18.2214Z" fill="#E74214"/>
<path d="M47.1033 17.0546C47.2702 17.3167 47.3417 17.6027 47.3893 17.9126C46.6267 18.1986 45.7925 18.2939 44.9822 18.4369C41.0735 19.1996 37.1887 20.0099 33.28 20.7487C33.0178 20.7964 32.7795 20.9156 32.4935 20.9156C32.2313 20.7011 32.0168 20.4389 31.8262 20.1767C31.9692 19.8907 32.2313 19.8669 32.4935 19.8192C37.0933 18.9136 41.6932 18.0079 46.3168 17.1022C46.579 17.0307 46.8412 16.9354 47.1033 17.0546Z" fill="#E74214"/>
<path d="M32.4941 20.9148C32.6371 20.6049 32.947 20.6526 33.1853 20.6049C36.951 19.8423 40.7405 19.0796 44.5061 18.3646C45.4595 18.1978 46.389 17.8641 47.3661 17.8879C47.4376 18.1024 47.533 18.2931 47.5091 18.5314C47.39 18.7459 47.1755 18.7936 46.961 18.8174C42.4088 19.6993 37.8566 20.6288 33.2806 21.5106C33.1853 21.5344 33.1138 21.5344 33.0185 21.5106C32.8278 21.3676 32.661 21.1531 32.4941 20.9148Z" fill="#E74214"/>
<path d="M25.6537 7.521C25.2009 7.75933 24.7242 7.97383 24.2714 8.21216C22.1741 6.80599 20.0529 5.4475 17.9317 4.06516C17.7411 3.946 17.5266 3.82683 17.5981 3.54083C17.6696 3.49316 17.7411 3.49316 17.8364 3.49316C18.0747 3.54083 18.3369 3.54083 18.5752 3.517C18.8136 3.517 19.0281 3.51699 19.2664 3.56466C19.5762 3.65999 19.9337 3.68383 20.2436 3.77916C20.5772 3.89833 20.9109 3.99367 21.2207 4.11283C21.4829 4.232 21.7451 4.32733 22.0072 4.4465C22.2932 4.61333 22.5792 4.7325 22.8652 4.89933C23.1274 5.09 23.4134 5.20917 23.6517 5.42367C23.9377 5.63817 24.2714 5.805 24.5097 6.091C24.7957 6.40083 25.0817 6.68683 25.3916 6.97283C25.5346 7.11583 25.7967 7.235 25.6537 7.521Z" fill="#E74214"/>
<path d="M34.5423 2.9215C34.8521 3.01684 35.162 3.136 35.4241 3.3505C34.0895 6.52033 32.874 9.714 31.5393 12.8838C31.4201 13.1698 31.3486 13.5035 31.1103 13.7418C30.7766 13.7895 30.4668 13.6942 30.1331 13.6227C29.8233 13.3605 30.0855 13.0983 30.1808 12.86C31.158 10.429 32.1351 7.998 33.1123 5.567C33.4221 4.82816 33.7081 4.0655 34.0418 3.3505C34.1371 3.136 34.161 2.80234 34.5423 2.9215Z" fill="#E74214"/>
<path d="M26.582 44.9871C26.6773 46.0834 26.8203 47.1798 27.154 48.2046C27.2731 48.5383 27.2016 48.6574 26.8441 48.6574C26.582 48.6574 26.3198 48.7051 26.0576 48.729C25.8431 47.7041 25.7955 46.6554 25.6763 45.6068C25.438 43.3188 25.1996 41.0069 24.9613 38.7189C24.8183 37.2174 24.6515 35.7159 24.4846 34.2144C24.4608 33.9523 24.437 33.6663 24.6276 33.4518C24.8421 33.4279 25.0566 33.3803 25.2711 33.3564C25.6763 33.9523 25.5571 34.6673 25.6286 35.3108C25.867 37.6703 26.1291 40.0298 26.3675 42.4131C26.4866 43.2473 26.5581 44.1291 26.582 44.9871Z" fill="#E74214"/>
<path d="M47.1039 17.0542C45.7454 17.3402 44.3631 17.6262 43.0046 17.9122C39.6441 18.5796 36.2836 19.2469 32.8992 19.9142C32.5417 19.9857 32.1604 20.0096 31.8267 20.2002C31.6599 20.0572 31.5169 19.8904 31.4216 19.6997C31.3977 19.3661 31.6361 19.3422 31.8506 19.2707C32.2557 19.1515 32.6847 19.0801 33.1137 19.0086C37.4276 18.1267 41.7652 17.3164 46.0791 16.4346C46.3412 16.3869 46.6272 16.2677 46.9132 16.4346C47.0324 16.6014 47.1277 16.8159 47.1039 17.0542Z" fill="#E74214"/>
<path d="M24.6768 33.4277C24.7006 34.8577 24.9389 36.2877 25.0819 37.6939C25.1773 38.5281 25.2249 39.3384 25.3203 40.1726C25.4633 41.4596 25.6063 42.7466 25.7254 44.0097C25.8446 45.2252 25.9638 46.4407 26.0591 47.6562C26.0829 47.9899 26.3213 48.3474 26.0829 48.6811C25.8684 48.6811 25.6539 48.7049 25.4394 48.7049C25.2011 48.3474 25.2249 47.9184 25.1773 47.5132C24.8674 44.4387 24.5576 41.3881 24.2239 38.3136C24.0571 36.7406 23.9856 35.1437 23.6758 33.5946C24.0094 33.4992 24.3431 33.4516 24.6768 33.4277Z" fill="#E74214"/>
<path d="M28.4415 39.7433C28.5606 39.2905 28.7275 38.8615 28.9658 38.4563C29.3471 38.3133 29.4663 38.6232 29.6331 38.8377C30.8486 40.363 32.0641 41.9122 33.2558 43.4613C33.804 44.1763 34.3998 44.8675 34.9241 45.6063C35.0433 45.7732 35.234 45.9162 35.1625 46.1783C34.805 46.3452 34.519 46.655 34.09 46.7027C33.3273 45.9638 32.7315 45.0582 32.0641 44.224C31.0155 42.8893 29.9668 41.5785 28.9181 40.2438C28.799 40.0293 28.6321 39.8863 28.4415 39.7433Z" fill="#E74214"/>
<path d="M46.9124 16.3872C45.0058 16.7686 43.1229 17.1499 41.2163 17.5074C38.2133 18.1032 35.1864 18.6991 32.1834 19.2949C31.9213 19.3426 31.5638 19.2949 31.3969 19.6524C31.1824 19.4617 31.0156 19.2234 30.8964 18.9612C31.5638 18.5799 32.3264 18.6037 33.0414 18.4607C35.8299 17.8887 38.5946 17.3406 41.3831 16.7924C43.1468 16.4349 44.8866 16.1012 46.6503 15.7676C46.8171 15.9582 46.8648 16.1727 46.9124 16.3872Z" fill="#E74214"/>
<path d="M30.5625 35.8826C30.7293 35.6443 30.8485 35.406 31.0868 35.2391C31.3252 35.12 31.492 35.2391 31.635 35.4298C33.78 38.1706 35.9488 40.9114 38.07 43.6523C38.213 43.8191 38.4037 43.986 38.3083 44.272C38.07 44.4865 37.8555 44.701 37.5457 44.7725C36.8307 44.1766 36.3302 43.3663 35.7582 42.6513C34.1137 40.5778 32.493 38.4805 30.8485 36.407C30.7293 36.2401 30.5863 36.0971 30.5625 35.8826Z" fill="#E74214"/>
<path d="M40.5485 42.4127C40.3102 42.6987 40.0242 42.9609 39.6905 43.1754C38.9755 42.3889 38.3558 41.5071 37.6885 40.6967C36.4253 39.0999 35.1622 37.4792 33.899 35.8824C33.7322 35.6679 33.5653 35.5249 33.3032 35.4772C33.184 35.4534 33.041 35.4534 33.041 35.2627C33.6607 35.2627 34.3042 35.2389 34.9238 35.2389C35.186 35.1912 35.2575 35.3819 35.3767 35.5249C37.0212 37.6699 38.7372 39.7672 40.3817 41.9122C40.5009 42.0552 40.6915 42.1982 40.5485 42.4127Z" fill="#E74214"/>
<path d="M33.041 21.5342C33.6845 21.1529 34.4233 21.1529 35.1383 21.0099C38.6657 20.2949 42.193 19.6037 45.7203 18.9126C46.3162 18.7934 46.9358 18.7219 47.5317 18.5312C47.5555 18.7934 47.77 19.0079 47.7223 19.2939C47.5555 19.4607 47.3172 19.5084 47.0788 19.5561C43.0033 20.3187 38.9278 21.2006 34.8285 21.9632C34.3995 22.0347 33.9943 22.2016 33.5653 22.1777C33.3985 21.9632 33.2317 21.7487 33.041 21.5342Z" fill="#E74214"/>
<path d="M15.7857 34.3096C16.3577 34.3334 16.9297 34.3572 17.4779 34.3811C17.7401 34.4764 17.7401 34.6909 17.7639 34.9054C18.0499 37.7654 18.3597 40.6016 18.6457 43.4616C18.7649 44.6532 18.8841 45.8449 19.0271 47.0127C19.0509 47.2511 19.0986 47.4656 19.0509 47.7039C19.0032 47.9184 18.9317 48.0852 18.6457 47.9899C18.3597 47.9661 18.0737 47.8946 17.8354 47.7516C17.9069 47.5371 17.9784 47.3226 17.9546 47.0842C17.5256 43.0802 17.1442 39.0762 16.7152 35.0961C16.6914 34.8101 16.6676 34.5479 16.2862 34.5479C16.1194 34.5479 15.9764 34.5241 15.8334 34.4526C15.7619 34.4287 15.7619 34.3811 15.7857 34.3096Z" fill="#E74214"/>
<path d="M47.8432 19.9376C47.9624 20.1759 47.9624 20.4381 47.9624 20.6764C47.7479 20.9386 47.4381 20.9386 47.1282 21.0101C43.4817 21.7489 39.8352 22.4401 36.2126 23.1551C35.6882 23.2504 35.1639 23.3696 34.6634 23.5364C34.4727 23.2981 34.3059 23.0597 34.1152 22.8214C34.1391 22.3924 34.4966 22.4639 34.7587 22.3924C36.9752 21.9396 39.2156 21.4867 41.4321 21.0577C43.3149 20.6764 45.2216 20.3189 47.1044 19.9376C47.3427 19.9137 47.5811 19.8184 47.8432 19.9376Z" fill="#E74214"/>
<path d="M47.8422 19.9384C46.4837 20.2244 45.149 20.5104 43.7905 20.7964C40.6922 21.4161 37.57 22.0119 34.4478 22.6316C34.3048 22.6554 34.1857 22.7031 34.1142 22.8461C33.9473 22.6316 33.7567 22.4171 33.5898 22.1788C34.2095 21.7736 34.9483 21.8213 35.6395 21.6783C38.4042 21.1063 41.1927 20.5581 43.9812 20.0099C45.2205 19.7716 46.4837 19.5333 47.7468 19.2949C47.7945 19.5094 47.866 19.7239 47.8422 19.9384Z" fill="#E74214"/>
<path d="M7.18254 7.8306C7.3732 7.59227 7.5877 7.37777 7.84987 7.21094C11.2104 9.45127 14.6185 11.6201 17.979 13.8366C18.1935 13.9796 18.4557 14.0988 18.551 14.3848C18.4319 14.5993 18.3365 14.8138 18.2174 15.0283C18.0029 15.1713 17.836 14.9806 17.693 14.8853C15.6195 13.5744 13.5699 12.1921 11.4964 10.8574C10.1617 9.99943 8.82704 9.14144 7.5162 8.2596C7.34937 8.14044 7.13487 8.09277 7.18254 7.8306Z" fill="#E74214"/>
<path d="M30.563 35.8828C31.3495 36.717 31.993 37.6465 32.6842 38.5283C34.2572 40.5065 35.8302 42.5085 37.4032 44.4866C37.4747 44.582 37.5224 44.6535 37.5462 44.7726C37.3317 44.9871 37.0934 45.1778 36.7835 45.297C36.1162 44.7488 35.6634 44.01 35.139 43.3426C33.5899 41.3645 32.0169 39.4101 30.4915 37.4081C30.3247 37.1936 30.0864 37.003 29.9434 36.7646C30.134 36.4548 30.3009 36.1211 30.563 35.8828Z" fill="#E74214"/>
<path d="M31.1113 13.7415C31.3258 12.7644 31.8263 11.8825 32.1838 10.9769C33.0895 8.64119 34.0428 6.32935 34.9962 4.01752C35.0915 3.77919 35.163 3.49319 35.4252 3.37402C35.7112 3.46936 35.9972 3.58852 36.2355 3.80302C34.9247 6.92519 33.6853 10.0712 32.4222 13.1934C32.3268 13.4317 32.303 13.7892 31.9217 13.7892C31.7072 13.7892 31.5165 13.813 31.302 13.7415C31.2305 13.7415 31.159 13.7415 31.1113 13.7415Z" fill="#E74214"/>
<path d="M35.1853 46.1546C34.4465 45.2013 33.7315 44.2479 32.9927 43.2946C31.8725 41.8646 30.7285 40.4346 29.6083 39.0046C29.4415 38.7901 29.2985 38.5279 28.9648 38.4803C29.084 38.1228 29.2508 37.8129 29.4892 37.5031C29.799 37.3601 29.8943 37.6223 30.0373 37.7891C31.372 39.4098 32.6352 41.1019 33.946 42.7464C34.5657 43.5329 35.1853 44.2956 35.7812 45.1059C35.9242 45.2728 36.1863 45.4396 36.0433 45.7494C35.7812 45.8924 35.519 46.1069 35.1853 46.1546Z" fill="#E74214"/>
<path d="M15.2379 22.1789C13.4266 21.0111 11.6152 19.8432 9.82773 18.6754C7.5874 17.2216 5.34707 15.7677 3.10673 14.3139C2.9399 14.1947 2.77307 14.0994 2.67773 13.9087C2.74923 13.6704 2.84457 13.4559 3.0114 13.2891C5.68073 15.1004 8.42157 16.8164 11.1147 18.5801C12.5209 19.5096 13.9509 20.4152 15.3809 21.3447C15.4524 21.3924 15.5239 21.4639 15.5716 21.5354C15.5239 21.7976 15.3809 21.9882 15.2379 22.1789Z" fill="#E74214"/>
<path d="M23.6752 33.6182C24.1042 33.8803 23.9851 34.3332 24.0089 34.6907C24.1996 36.3352 24.3664 38.0035 24.5332 39.648C24.6524 40.8397 24.7477 42.0313 24.8669 43.2468C24.9861 44.4623 25.1291 45.6778 25.2721 46.8695C25.3436 47.4892 25.3674 48.1088 25.4151 48.7285C25.2006 48.7285 24.9861 48.7285 24.7716 48.7523C24.4379 48.085 24.4856 47.3223 24.4141 46.6073C24.1757 44.2955 23.9374 41.9598 23.6991 39.648C23.5084 37.8128 23.3177 35.9538 23.1271 34.1187C23.1032 33.9995 23.1271 33.8803 23.1509 33.7373C23.3177 33.6182 23.5084 33.642 23.6752 33.6182Z" fill="#E74214"/>
<path d="M5.82401 9.26045C5.91934 9.06978 6.06234 8.92678 6.25301 8.80762C6.96801 9.02212 7.51617 9.52262 8.13584 9.92779C11.0435 11.8345 13.9988 13.6935 16.8827 15.624C17.1448 15.8146 17.4308 15.9338 17.7168 16.1006C17.6692 16.4105 17.5262 16.6726 17.3832 16.9586C17.1448 17.0301 16.978 16.8633 16.8112 16.7441C13.975 14.8851 11.115 13.05 8.30268 11.191C7.58768 10.7143 6.84884 10.2853 6.15767 9.78479C5.94317 9.66562 5.68101 9.57028 5.82401 9.26045Z" fill="#E74214"/>
<path d="M34.6621 23.5606C34.7098 23.2746 34.9481 23.2984 35.1626 23.2508C37.6651 22.7503 40.1676 22.2498 42.6463 21.7493C44.4099 21.3918 46.1736 21.0343 47.9611 20.6768C47.8896 20.9389 48.1041 21.1773 48.0564 21.4156C47.9134 21.5824 47.6989 21.6301 47.4844 21.6778C43.4089 22.4881 39.3096 23.2746 35.2341 24.1088C35.1864 24.1088 35.1388 24.1088 35.0673 24.1088C34.9004 23.9658 34.7574 23.7751 34.6621 23.5606Z" fill="#E74214"/>
<path d="M23.1498 33.737C23.4596 34.4044 23.3881 35.1194 23.4835 35.8105C23.698 37.5027 23.8648 39.1949 24.0316 40.8632C24.1508 42.0787 24.2461 43.2942 24.3653 44.5097C24.4845 45.7014 24.6513 46.893 24.7705 48.0847C24.7943 48.2992 24.7943 48.5137 24.7943 48.7282C24.5321 48.7282 24.27 48.8474 24.0316 48.7282C23.7456 46.6547 23.5788 44.5574 23.3643 42.46C23.0783 39.8145 22.8161 37.1452 22.554 34.4759C22.5301 34.2375 22.5063 34.023 22.6731 33.8085C22.7923 33.7132 22.983 33.737 23.1498 33.737Z" fill="#E74214"/>
<path d="M10.4241 22.5352C10.7101 22.7973 10.8293 23.131 10.9723 23.4647C10.7816 23.7268 10.4956 23.7507 10.2096 23.7745C7.11128 24.2035 4.03678 24.6563 0.938448 25.0853C0.700115 25.1092 0.437948 25.1568 0.223448 24.9662C0.151948 24.6802 0.175781 24.3942 0.199615 24.1082C0.342615 23.8937 0.580948 23.8698 0.819281 23.846C3.84611 23.417 6.89678 22.988 9.94745 22.559C10.0904 22.5352 10.2573 22.559 10.4241 22.5352Z" fill="#E74214"/>
<path d="M33.0413 35.2627C34.0185 35.3104 34.3283 36.1922 34.805 36.788C36.3542 38.6947 37.8557 40.649 39.3572 42.5795C39.5002 42.7464 39.667 42.937 39.6908 43.1754C39.524 43.3899 39.2857 43.5567 39.0473 43.6997C38.8328 43.652 38.7137 43.509 38.5945 43.3422C36.6402 40.8397 34.662 38.361 32.7315 35.8585C32.6123 35.6917 32.374 35.5487 32.517 35.2627C32.6838 35.2627 32.8745 35.2627 33.0413 35.2627Z" fill="#E74214"/>
<path d="M15.5484 21.5351C14.7143 21.2253 14.0231 20.6295 13.2843 20.1528C10.0191 18.0793 6.77778 15.9343 3.53645 13.8131C3.32195 13.6701 3.01211 13.5986 2.98828 13.265C3.03595 13.0505 3.15511 12.8836 3.29811 12.7168C6.99228 15.1716 10.7103 17.5311 14.3806 19.9621C14.8811 20.2958 15.4531 20.5341 15.8583 21.0108C15.7629 21.1776 15.6676 21.3683 15.5484 21.5351Z" fill="#E74214"/>
<path d="M34.544 2.92115C34.0435 3.15948 34.0435 3.68381 33.8766 4.06515C32.6135 7.09198 31.4218 10.1426 30.1825 13.1933C30.1348 13.3363 30.0395 13.4555 30.1348 13.5985C29.6105 13.5031 29.682 12.9788 29.4913 12.669C29.396 12.4783 29.4913 12.2876 29.5628 12.1208C30.7545 9.14164 31.9938 6.16248 33.1855 3.15948C33.2808 2.89731 33.3046 2.49214 33.8051 2.58748C34.0673 2.65898 34.3295 2.75431 34.544 2.92115Z" fill="#E74214"/>
<path d="M32.5175 35.2629C32.9465 36.0971 33.6138 36.7406 34.162 37.4794C35.7827 39.5768 37.4272 41.6503 39.0478 43.7238C38.8333 43.9383 38.595 44.1289 38.309 44.2719C37.7132 43.2471 36.9028 42.4129 36.2117 41.4834C34.9962 39.8866 33.7568 38.3374 32.5175 36.7644C32.1838 36.3354 31.8263 35.9064 31.5165 35.4774C31.3973 35.3344 31.2782 35.2629 31.1113 35.2629C31.5642 35.0246 32.0408 35.2868 32.5175 35.2629Z" fill="#E74214"/>
<path d="M20.29 34.1906C20.3854 34.1906 20.4807 34.1668 20.576 34.1668C21.0527 34.0238 21.148 34.3575 21.1719 34.6911C21.2672 35.7875 21.4102 36.8838 21.5055 37.9801C21.7677 40.6256 22.0537 43.295 22.3159 45.9405C22.3874 46.6555 22.4827 47.3943 22.5304 48.1093C22.5542 48.3476 22.6257 48.7052 22.1729 48.6098C21.8869 48.6098 21.577 48.6336 21.3149 48.5145C21.6009 48.2523 21.5294 47.8948 21.5055 47.5611C21.3149 45.6783 21.1004 43.7716 20.9335 41.8888C20.6952 39.4816 20.4092 37.0745 20.2185 34.6673C20.1947 34.5243 20.147 34.3336 20.29 34.1906Z" fill="#E74214"/>
<path d="M18.5508 14.361C15.2618 12.216 11.9728 10.0949 8.70761 7.92604C8.39778 7.71154 7.96878 7.61621 7.84961 7.18721C7.99261 6.99654 8.15944 6.85354 8.37394 6.73438C9.20811 7.11571 9.92311 7.68771 10.6858 8.16438C13.4028 9.92804 16.1198 11.6917 18.8368 13.4554C18.9083 13.503 18.9559 13.5507 19.0036 13.5984C18.8368 13.8844 18.6938 14.1227 18.5508 14.361Z" fill="#E74214"/>
<path d="M7.18289 7.83008C7.65955 8.30674 8.27922 8.61658 8.82739 8.97408C11.8781 10.9761 14.9526 12.9543 18.0032 14.9563C18.0509 15.0039 18.1462 15.0039 18.1939 15.0277C18.0986 15.2422 17.9794 15.4568 17.8841 15.6713C17.6457 15.8143 17.4789 15.6236 17.3121 15.5044C14.9764 13.9791 12.6169 12.4537 10.2812 10.9284C9.20872 10.2372 8.11239 9.54608 7.06372 8.83108C6.87305 8.68808 6.58705 8.59275 6.73005 8.25908C6.87305 8.06842 7.01605 7.92541 7.18289 7.83008Z" fill="#E74214"/>
<path d="M0.246931 24.9663C1.53393 24.9425 2.82093 24.6565 4.0841 24.4897C5.46643 24.3228 6.84876 24.1083 8.2311 23.8938C9.13676 23.7508 10.0663 23.7032 10.9481 23.4648C11.1149 23.6555 11.2103 23.87 11.2579 24.1083C11.2341 24.4897 10.9004 24.5135 10.6383 24.5612C8.85076 24.8233 7.03943 25.0855 5.2281 25.3238C3.84576 25.5145 2.48726 25.729 1.10493 25.8958C1.0096 25.9197 0.890431 25.9435 0.795098 25.9435C0.270765 25.9912 0.175431 25.8958 0.175431 25.3715C0.175431 25.2523 0.127765 25.0855 0.246931 24.9663Z" fill="#E74214"/>
<path d="M22.173 48.6326C22.4352 48.6088 22.4352 48.4181 22.4113 48.2274C22.2445 46.7259 22.0538 45.2006 21.9108 43.6991C21.7917 42.5313 21.6963 41.3873 21.5533 40.2194C21.4342 38.9563 21.2673 37.6931 21.1482 36.4299C21.1005 35.8579 21.0528 35.3098 21.029 34.7378C21.0052 34.4279 20.9813 34.1658 20.5762 34.1658C20.8145 34.0466 21.0767 34.0704 21.3388 34.0704C21.8155 33.9989 21.7678 34.4279 21.8155 34.6663C21.9108 35.4528 21.9823 36.2154 22.0538 37.0019C22.316 39.6951 22.602 42.3883 22.888 45.0814C23.0072 46.1301 23.1025 47.1788 23.1978 48.2274C23.2217 48.4181 23.2217 48.5849 23.0787 48.7279C22.7688 48.7279 22.459 48.7756 22.173 48.6326Z" fill="#E74214"/>
<path d="M10.4251 22.5357C10.1629 22.8694 9.75773 22.7741 9.4479 22.8217C7.18373 23.1792 4.9434 23.4891 2.67923 23.7989C1.8689 23.9181 1.05856 24.0134 0.272064 24.1326C0.152898 23.8227 0.224398 23.4891 0.224398 23.1792C0.367398 23.0362 0.534231 23.0124 0.701064 22.9886C3.75173 22.5119 6.82623 22.1306 9.90073 21.6777C10.1629 21.8922 10.2582 22.2259 10.4251 22.5357Z" fill="#E74214"/>
<path d="M36.0444 45.725C35.5916 44.9147 34.9481 44.2473 34.3999 43.5323C33.1606 41.9355 31.9212 40.3387 30.6581 38.7657C30.3006 38.3128 30.0622 37.7647 29.4902 37.5025C29.5856 37.2165 29.7762 36.9782 29.9431 36.7637C30.5866 37.0735 30.8726 37.717 31.2777 38.2175C32.8269 40.148 34.3522 42.1023 35.8776 44.0567C36.1874 44.4618 36.5449 44.8193 36.7832 45.296C36.5687 45.4628 36.3304 45.6297 36.0444 45.725Z" fill="#E74214"/>
<path d="M35.9015 25.4201C35.8062 25.2771 35.7109 25.1103 35.6394 24.9673C35.5202 24.6098 35.8062 24.5859 36.0207 24.5144C36.4259 24.3714 36.8549 24.3476 37.2839 24.2523C40.6205 23.5849 43.9572 22.9176 47.2939 22.2741C47.556 22.2264 47.842 22.0834 48.1042 22.2741C48.0804 22.6078 48.3425 22.9414 48.0327 23.2513C47.699 23.2274 47.3892 23.2751 47.0794 23.3466C43.6474 24.0616 40.1915 24.7051 36.7357 25.3963C36.4497 25.4678 36.1637 25.5869 35.9015 25.4201Z" fill="#E74214"/>
<path d="M9.56566 5.82844C9.80399 5.5901 10.09 5.39944 10.4237 5.28027C10.5428 5.49477 10.7097 5.63777 10.9003 5.78077C13.8795 7.73511 16.8587 9.64177 19.8378 11.5961C19.9808 11.6914 20.1238 11.7391 20.1715 11.9298C20.0285 12.1204 19.9093 12.2873 19.7663 12.4779C19.4803 12.6686 19.2897 12.4541 19.099 12.3349C17.7167 11.4293 16.3343 10.5474 14.9758 9.66561C13.3552 8.61694 11.7583 7.56827 10.1377 6.5196C9.87549 6.3051 9.54183 6.20977 9.56566 5.82844Z" fill="#E74214"/>
<path d="M18.9789 13.6227C18.2877 13.4559 17.7634 12.9554 17.1914 12.5979C14.379 10.7865 11.5667 8.95138 8.77821 7.09238C8.63521 6.99704 8.44455 6.94937 8.37305 6.7587C8.53988 6.5442 8.77821 6.37738 9.01655 6.23438C11.7097 8.04571 14.4505 9.78554 17.1437 11.5492C17.7634 11.9544 18.383 12.3834 19.0265 12.7885C19.1457 12.86 19.2649 12.9315 19.3125 13.0984C19.1934 13.2652 19.098 13.4559 18.9789 13.6227Z" fill="#E74214"/>
<path d="M16.9541 18.1265C16.9303 18.3172 16.8826 18.5079 16.7634 18.6747C16.5251 18.8177 16.3583 18.627 16.1914 18.5317C14.4278 17.4354 12.7118 16.2914 10.9719 15.1712C9.01759 13.908 7.03942 12.621 5.10892 11.334C4.89442 11.191 4.60842 11.1195 4.63226 10.762C4.77526 10.5714 4.91826 10.4045 5.06126 10.2139C7.94509 12.1682 10.9004 14.0272 13.8319 15.9339C14.7614 16.5297 15.6671 17.1732 16.6204 17.7452C16.7634 17.8167 16.9064 17.9359 16.9541 18.1265Z" fill="#E74214"/>
<path d="M28.4412 39.7435C28.7272 39.6005 28.8225 39.8627 28.9417 40.0057C30.6577 42.1507 32.3499 44.3195 34.042 46.4884C34.0897 46.536 34.0897 46.6314 34.1135 46.679C33.8275 46.8697 33.4939 47.0365 33.1364 47.108C32.8027 46.9412 32.6597 46.6075 32.4214 46.3215C31.0152 44.5579 29.6329 42.7465 28.2029 40.9829C28.1552 40.9352 28.1314 40.8637 28.1075 40.7922C28.179 40.4347 28.2982 40.0772 28.4412 39.7435Z" fill="#E74214"/>
<path d="M9.87691 21.6546C9.66241 21.9883 9.30491 21.9168 9.01891 21.9406C6.51641 22.3219 3.99008 22.6556 1.46375 23.0131C1.05858 23.0608 0.653414 23.0846 0.248247 23.1323C0.176747 23.1084 0.152914 23.0608 0.20058 22.9893C0.20058 22.5841 0.176747 22.2028 0.295914 21.7976C0.55808 21.9644 0.820247 21.9644 1.10625 21.9168C3.60875 21.5593 6.13508 21.2256 8.63758 20.8443C8.82825 20.8204 9.01891 20.7966 9.23341 20.8204C9.51941 21.1064 9.71008 21.3686 9.87691 21.6546Z" fill="#E74214"/>
<path d="M35.9023 25.4191C37.6183 25.0854 39.3343 24.7518 41.0503 24.3943C43.243 23.9653 45.4118 23.5363 47.6045 23.1073C47.7952 23.0596 47.9143 23.0358 47.962 23.2741C48.1527 23.5839 48.1765 23.8699 47.9143 24.1321C47.6045 24.0368 47.2947 24.0606 46.961 24.1321C43.6005 24.8233 40.24 25.4668 36.8795 26.1341C36.7127 26.1579 36.522 26.2056 36.3552 26.1818C36.1883 25.9196 36.0453 25.6574 35.9023 25.4191Z" fill="#E74214"/>
<path d="M18.6225 47.989C19.0992 47.846 18.8847 47.4409 18.8608 47.1787C18.7417 45.844 18.5987 44.5094 18.4557 43.1747C18.2888 41.6255 18.0982 40.0764 17.9313 38.5272C17.8122 37.3355 17.693 36.12 17.5977 34.9284C17.5738 34.7377 17.5977 34.547 17.4785 34.3564C17.7407 34.2849 18.0028 34.2849 18.265 34.3564C18.5033 34.7377 18.4318 35.1905 18.4795 35.5957C18.8132 38.9324 19.1707 42.2452 19.5043 45.5819C19.5758 46.2969 19.6712 47.0357 19.7188 47.7507C19.7188 47.9175 19.7665 48.1082 19.6473 48.275C19.3137 48.2035 18.9562 48.0844 18.6225 47.989Z" fill="#E74214"/>
<path d="M20.2912 34.1904C20.4342 35.5966 20.5772 37.0028 20.7202 38.4089C20.8393 39.6006 21.0062 40.7923 21.1253 41.9839C21.2445 43.1279 21.3637 44.2719 21.459 45.4159C21.5543 46.3216 21.5543 47.2273 21.7212 48.1091C21.7927 48.5619 21.602 48.5381 21.316 48.5619C21.2683 48.5619 21.1968 48.5381 21.1492 48.5381C20.744 47.9423 20.8632 47.2273 20.7917 46.5599C20.4818 43.8668 20.2435 41.1736 19.9575 38.4804C19.8383 37.3364 19.743 36.1686 19.6 35.0246C19.5762 34.7863 19.5523 34.5241 19.6238 34.2858C19.8383 34.1666 20.0528 34.1904 20.2912 34.1904Z" fill="#E74214"/>
<path d="M37.1174 27.6603C36.9744 27.4696 36.8553 27.2551 36.8076 27.0167C36.6884 26.7546 36.8553 26.6593 37.0459 26.5878C37.2128 26.5163 37.3796 26.4924 37.5703 26.4448C40.6924 25.8489 43.8146 25.2054 46.9368 24.6096C47.2466 24.5619 47.5803 24.4189 47.8186 24.7526C47.9139 25.1339 47.9139 25.4914 47.5803 25.7774C47.2466 25.7059 46.9129 25.7298 46.5793 25.8013C43.5048 26.4209 40.4303 27.0168 37.3558 27.6603C37.2604 27.6603 37.1889 27.6603 37.1174 27.6603Z" fill="#E74214"/>
<path d="M19.6235 34.2617C19.9095 34.6431 19.7665 35.1197 19.838 35.5487C20.0525 37.0979 20.1479 38.6709 20.2909 40.2439C20.4815 42.1505 20.7199 44.0811 20.9105 45.9877C21.0059 46.8219 21.0535 47.6799 21.1489 48.514C20.9344 48.514 20.696 48.5855 20.5054 48.4187C20.124 47.7514 20.2194 46.9887 20.1479 46.2737C19.8619 43.6282 19.5997 40.9827 19.3375 38.361C19.2184 37.217 19.123 36.0492 18.98 34.9052C18.9562 34.6907 18.9562 34.4762 19.123 34.3094C19.266 34.2855 19.4329 34.2856 19.6235 34.2617Z" fill="#E74214"/>
<path d="M9.2554 20.867C8.73106 21.1768 8.13523 21.1292 7.56323 21.2007C5.58506 21.5105 3.58306 21.7727 1.6049 22.0587C1.3189 22.1063 1.05673 22.1302 0.770729 22.1778C0.508562 22.2255 0.317896 22.1302 0.317896 21.8203C0.317896 21.5343 0.294062 21.2483 0.437063 20.9623C1.79556 20.9385 3.13023 20.6287 4.4649 20.4618C5.77573 20.295 7.06273 20.0567 8.37356 19.9375C8.7549 20.1758 9.01706 20.5095 9.2554 20.867Z" fill="#E74214"/>
<path d="M47.7458 24.7759C47.3645 24.4661 46.9832 24.7521 46.6257 24.7998C43.5989 25.3718 40.572 25.9676 37.569 26.5873C37.3069 26.6349 36.8779 26.5396 36.8064 27.0163C36.6634 26.7303 36.5203 26.4681 36.3535 26.1821C37.0447 25.8008 37.855 25.8008 38.5939 25.6339C41.4539 25.0381 44.3139 24.4899 47.1739 23.9418C47.3407 23.9179 47.7697 23.5128 47.8412 24.1086C47.9842 24.3708 48.0795 24.6091 47.7458 24.7759Z" fill="#E74214"/>
<path d="M5.82453 9.26074C5.82453 9.40374 5.89604 9.47525 6.0152 9.54675C9.8047 12.0016 13.5942 14.4802 17.3837 16.9351C17.3122 17.1257 17.2407 17.2926 17.1692 17.4832C16.9547 17.6262 16.7879 17.4594 16.6449 17.3402C14.6667 16.1009 12.7124 14.7901 10.758 13.5269C9.11353 12.4782 7.49287 11.4057 5.8722 10.3332C5.6577 10.1902 5.34787 10.1187 5.39554 9.76124C5.5147 9.59441 5.68153 9.42758 5.82453 9.26074Z" fill="#E74214"/>
<path d="M5.37233 9.78516C5.65833 10.2142 6.135 10.4048 6.564 10.667C9.59083 12.6452 12.6177 14.6233 15.6683 16.5777C16.1688 16.8875 16.6217 17.245 17.1698 17.4833C17.0983 17.6978 17.0268 17.9123 16.9553 18.1268C13.3803 15.815 9.80533 13.4793 6.23033 11.1437C5.82517 10.8815 5.277 10.7147 5.0625 10.1903C5.134 10.0235 5.22933 9.88049 5.37233 9.78516Z" fill="#E74214"/>
<path d="M19.3136 13.0979C18.0027 12.2399 16.6919 11.4057 15.3811 10.5477C13.4267 9.28454 11.4724 8.02137 9.51808 6.7582C9.32741 6.63904 9.04141 6.56754 9.01758 6.25771C9.16058 6.06704 9.35124 5.94787 9.56574 5.85254C9.70874 6.13854 9.99474 6.28154 10.2331 6.44837C13.2361 8.40271 16.2391 10.357 19.2659 12.3114C19.4089 12.4067 19.5519 12.5259 19.7426 12.502C19.6472 12.6927 19.4804 12.9072 19.3136 13.0979Z" fill="#E74214"/>
<path d="M40.5501 42.412C40.2402 41.7446 39.7159 41.2441 39.263 40.6721C37.9045 38.8846 36.4984 37.121 35.1161 35.3573C35.0684 35.3096 34.9969 35.2858 34.9492 35.2381C35.2591 35.119 35.5927 35.1428 35.9264 35.1428C36.2124 35.0236 36.3554 35.1666 36.4984 35.3811C38.0237 37.3593 39.5729 39.3613 41.1459 41.2918C41.2412 41.411 41.3604 41.5063 41.2889 41.6731C41.0982 41.9591 40.8599 42.2213 40.5501 42.412Z" fill="#E74214"/>
<path d="M6.75324 8.23633C6.75324 8.45083 6.89624 8.54616 7.06308 8.6415C10.6142 10.9533 14.1892 13.289 17.7404 15.6247C17.7881 15.6485 17.8357 15.6485 17.8834 15.6723C17.8834 15.863 17.6451 15.9107 17.6689 16.1013C17.3829 16.2205 17.1922 16.0298 17.0016 15.8868C13.9986 13.9325 10.9956 11.9543 7.96874 9.99999C7.37291 9.61866 6.75324 9.26116 6.20508 8.80833C6.37191 8.56999 6.56258 8.40316 6.75324 8.23633Z" fill="#E74214"/>
<path d="M9.85238 28.6128C9.70938 28.9226 9.56638 29.2563 9.42338 29.5661C9.20888 29.7329 8.97055 29.7568 8.70838 29.8044C6.32505 30.1381 3.94171 30.4479 1.53455 30.8054C1.34388 30.8293 1.15321 30.9008 0.962547 30.7339C0.84338 30.4479 0.748047 30.1858 0.748047 29.8759C0.891047 29.5899 1.17705 29.5899 1.43921 29.5423C3.98938 29.1609 6.51571 28.8034 9.06588 28.4459C9.35188 28.4459 9.63788 28.3983 9.85238 28.6128Z" fill="#E74214"/>
<path d="M30.182 1.41951C30.4918 1.41951 30.754 1.51485 31.0161 1.63401C30.2058 3.15935 29.6815 4.80385 29.0141 6.40068C28.6566 7.25868 28.323 8.11668 27.9893 8.97468C27.894 9.21302 27.8225 9.45135 27.5841 9.57052C27.3696 9.28452 27.1551 9.02235 26.9406 8.73635C26.8453 8.49802 26.893 8.28351 26.9883 8.06901C27.7986 6.01935 28.609 3.99352 29.4431 1.94385C29.5623 1.63402 29.6815 1.25268 30.182 1.41951Z" fill="#E74214"/>
<path d="M10.9488 33.3086C11.1633 33.3801 11.3778 33.4516 11.5923 33.5469C11.8783 33.7138 11.9022 33.9998 11.9498 34.2858C12.212 36.8598 12.4742 39.4099 12.7363 41.9839C12.8078 42.8181 12.9032 43.6523 12.9985 44.4864C13.0223 44.7009 13.07 44.9154 12.927 45.1061C12.4027 45.1538 12.0452 44.8916 11.8783 44.2719C11.8783 42.8419 11.64 41.4358 11.5208 40.0296C11.3302 37.9561 11.0918 35.9064 10.9012 33.8329C10.8535 33.6423 10.8058 33.4754 10.9488 33.3086Z" fill="#E74214"/>
<path d="M23.0793 48.7291C22.9363 47.4421 22.7933 46.1789 22.6741 44.8919C22.5549 43.7002 22.4596 42.5086 22.3404 41.3169C22.2213 40.0776 22.0544 38.8621 21.9353 37.6466C21.8399 36.7409 21.7923 35.8591 21.6969 34.9534C21.6731 34.6436 21.7684 34.2623 21.3633 34.0954C21.6016 33.9763 21.8638 33.9763 22.1259 34.0239C22.3404 34.2146 22.3643 34.4529 22.3881 34.7151C22.8409 39.1958 23.2938 43.6526 23.7704 48.1333C23.7943 48.3716 23.8181 48.5861 23.6513 48.8006C23.4368 48.7291 23.2461 48.7291 23.0793 48.7291Z" fill="#E74214"/>
<path d="M20.149 11.9054C18.6237 10.9282 17.0983 9.95108 15.573 8.97391C13.9047 7.90141 12.2363 6.80508 10.568 5.73258C10.3535 5.58958 10.282 5.49425 10.4012 5.27975V5.25591C10.5918 5.18441 10.7348 5.01758 10.9732 5.01758C11.7835 5.47041 12.5462 6.01858 13.3088 6.51908C15.5492 7.94908 17.7657 9.42674 19.9822 10.8567C20.1967 10.9997 20.435 11.1427 20.578 11.3811C20.435 11.5479 20.292 11.7386 20.149 11.9054Z" fill="#E74214"/>
<path d="M12.3548 33.7617C12.5931 33.8332 12.8553 33.8809 13.0936 33.9524C13.4035 34.6674 13.3796 35.4539 13.4511 36.1927C13.6895 38.5045 13.9278 40.7925 14.1661 43.1044C14.2376 43.9147 14.3091 44.725 14.4045 45.5592C14.4283 45.7737 14.4283 45.9882 14.2853 46.1789C13.8325 46.2266 13.5226 46.0359 13.3558 45.6069C13.3558 44.1292 13.1175 42.6754 12.9745 41.1977C12.76 39.005 12.5455 36.8124 12.3071 34.6197C12.2833 34.3337 12.2356 34.0477 12.3548 33.7617Z" fill="#E74214"/>
<path d="M27.5605 9.57029C28.5854 7.04396 29.6102 4.54146 30.635 2.01512C30.7065 1.82446 30.7542 1.63379 31.0164 1.63379C31.2785 1.65762 31.5407 1.70529 31.7552 1.84829C31.6837 2.30113 31.4454 2.70629 31.2785 3.13529C30.3967 5.37563 29.4672 7.61596 28.5615 9.85629C28.4662 10.0708 28.4185 10.3091 28.204 10.4283C27.9895 10.1661 27.775 9.85629 27.5605 9.57029Z" fill="#E74214"/>
<path d="M10.1857 42.4135C10.567 42.3181 10.424 42.0083 10.4002 41.7938C10.281 40.483 10.138 39.1483 9.99504 37.8375C9.8282 36.2883 9.66137 34.7391 9.49454 33.2138C9.4707 32.9993 9.4707 32.7848 9.4707 32.5703C9.7567 32.6656 9.99504 32.8325 10.2095 32.9993C10.6147 33.476 10.5194 34.0956 10.567 34.6438C10.8292 37.337 11.139 40.054 11.4012 42.7471C11.425 43.0331 11.5204 43.3191 11.2344 43.5336C10.7339 43.486 10.281 42.9855 10.1857 42.4135Z" fill="#E74214"/>
<path d="M3.65581 12.2157C3.72731 12.0012 3.82265 11.8344 3.98948 11.6914C6.34898 13.2406 8.73231 14.7897 11.1156 16.3389C12.6886 17.3637 14.2616 18.3886 15.8346 19.3896C16.0253 19.5087 16.2398 19.6279 16.3351 19.8424C16.359 20.0569 16.2636 20.2237 16.1445 20.3906C15.93 20.4621 15.8108 20.3191 15.6678 20.2237C13.4751 18.7937 11.3063 17.3876 9.11365 15.9576C7.44531 14.8612 5.77698 13.7649 4.08481 12.6924C3.89415 12.5732 3.63198 12.5017 3.65581 12.2157Z" fill="#E74214"/>
<path d="M12.3545 33.7614C12.569 34.238 12.4975 34.7385 12.5451 35.2152C12.7596 37.098 12.9026 39.0047 13.1171 40.9114C13.284 42.3652 13.4508 43.819 13.5461 45.2729C13.5461 45.4159 13.5938 45.5589 13.427 45.6304C13.0456 45.6542 12.8311 45.4635 12.7596 45.106C13.0218 44.6055 12.7596 44.0812 12.7358 43.5807C12.712 42.675 12.5451 41.7694 12.4498 40.8399C12.3068 39.6005 12.1876 38.3612 12.0446 37.098C11.9493 36.2639 11.8778 35.4059 11.8063 34.5717C11.7825 34.2142 11.711 33.8805 11.5918 33.5469C11.854 33.6184 12.0923 33.6899 12.3545 33.7614Z" fill="#E74214"/>
<path d="M11.0432 43.4847C11.4007 43.4132 11.2815 43.1272 11.2577 42.9127C11.0908 41.1967 10.924 39.5045 10.7333 37.7885C10.5665 36.1917 10.3758 34.5949 10.209 32.998C10.495 33.0219 10.7333 33.1649 10.9717 33.3079C11.1147 34.7379 11.2577 36.144 11.4007 37.574C11.5675 39.1232 11.782 40.6485 11.9012 42.1977C11.9488 42.8889 12.2587 43.6277 11.925 44.3189C11.4483 44.2236 11.1623 43.9376 11.0432 43.4847Z" fill="#E74214"/>
<path d="M30.1817 1.41966C29.9434 1.39583 29.7765 1.49116 29.6812 1.7295C28.7755 4.0175 27.846 6.30549 26.9404 8.59349C26.9165 8.64116 26.9165 8.68883 26.9165 8.76033C26.6305 8.4505 26.3684 8.14066 26.0824 7.83082C26.0109 7.66399 26.1062 7.52099 26.1539 7.37799C26.9165 5.49516 27.6792 3.5885 28.418 1.70566C28.561 1.34816 28.7279 1.03833 29.1807 1.229C29.5382 1.20516 29.8719 1.27666 30.1817 1.41966Z" fill="#E74214"/>
<path d="M23.6027 48.7288C23.4597 47.418 23.3167 46.1072 23.1975 44.7725C23.0783 43.6047 22.983 42.413 22.8638 41.2452C22.7447 39.9582 22.6017 38.6712 22.4587 37.408C22.3872 36.6215 22.268 35.835 22.2442 35.0247C22.2203 34.6672 22.125 34.3335 22.125 33.976C22.2918 33.833 22.4587 33.833 22.6493 33.833C22.7923 35.12 22.9353 36.407 23.0545 37.694C23.1498 38.5282 23.1975 39.3623 23.2928 40.1727C23.4358 41.4597 23.5788 42.7467 23.698 44.0337C23.8172 45.2253 23.9602 46.4408 24.0317 47.6325C24.0555 47.99 24.3653 48.3952 24.0317 48.7527C23.8887 48.7527 23.7457 48.7527 23.6027 48.7288Z" fill="#E74214"/>
<path d="M11.6159 25.6105C11.449 25.8727 11.2822 26.111 11.0915 26.3732C10.2574 26.5877 9.39936 26.6354 8.5652 26.7784C6.0627 27.1597 3.53637 27.4934 1.03387 27.827C0.747866 27.8747 0.438033 27.9462 0.3427 27.541C0.295033 27.255 0.1997 26.969 0.247366 26.683C0.461866 26.8737 0.7002 26.8737 0.9862 26.826C4.15603 26.3494 7.30203 25.9204 10.4719 25.4914C10.8532 25.4675 11.2822 25.1815 11.6159 25.6105Z" fill="#E74214"/>
<path d="M37.6658 28.9235C37.5466 28.7567 37.4751 28.5898 37.4513 28.3753C37.3321 28.1132 37.5228 28.0178 37.6896 27.9463C37.8326 27.8748 37.9994 27.851 38.1424 27.8272C40.9309 27.2552 43.7433 26.7308 46.5318 26.1827C46.8416 26.1112 47.2229 25.992 47.4136 26.421C47.4374 26.707 47.4136 26.993 47.1276 27.1598C44.2199 27.708 41.3361 28.3038 38.4523 28.8758C38.1901 28.9235 37.9279 29.0188 37.6658 28.9235Z" fill="#E74214"/>
<path d="M43.1223 39.6009C42.9078 39.9345 42.7171 40.2682 42.3834 40.4827C41.7161 39.863 41.2156 39.1004 40.6674 38.3854C39.8809 37.4082 39.0944 36.4072 38.3318 35.4062C38.1649 35.1679 37.9266 35.001 37.7598 34.7865C37.9981 34.6674 38.2603 34.6197 38.5224 34.572C38.5701 34.5244 38.6178 34.429 38.6893 34.4052C38.8799 34.3337 39.0706 34.3337 39.2613 34.4052C40.0478 35.3585 40.7866 36.3357 41.5493 37.289C42.0021 37.861 42.4788 38.433 42.9078 39.005C42.9793 39.2195 43.1461 39.3625 43.1223 39.6009Z" fill="#E74214"/>
<path d="M35.2102 13.6454C35.0196 13.7646 34.7812 13.7407 34.5667 13.7407C33.9947 13.8122 33.8756 13.6692 34.1139 13.0734C35.0434 10.7377 35.9729 8.40207 36.9262 6.06641C37.0692 5.73274 37.1884 5.39907 37.3314 5.08924C37.4267 4.89857 37.4744 4.66024 37.7842 4.73174C38.0226 4.82707 38.2609 4.94624 38.3801 5.18458C38.3562 5.56591 38.1417 5.85191 37.9987 6.18557C37.0931 8.42591 36.2112 10.6901 35.3056 12.9304C35.2341 13.1449 35.1387 13.3832 35.2102 13.6454Z" fill="#E74214"/>
<path d="M11.0422 43.4859C11.2806 43.7958 11.5666 44.1056 11.9002 44.3439C12.1386 44.6538 12.4007 44.9159 12.7582 45.1066C12.9251 45.3449 13.1634 45.5118 13.4256 45.6309C13.6401 45.8693 13.9022 46.0123 14.1882 46.1791C14.3312 46.2506 14.5696 46.2268 14.5219 46.4889C12.8297 45.8454 11.2806 44.8683 9.82675 43.7958C8.89724 43.1046 7.96774 42.3658 7.20508 41.4839C7.82474 41.0311 8.53974 41.0311 9.25474 41.0549C9.58841 41.5078 9.80291 42.0559 10.2081 42.4373C10.4226 42.8186 10.7086 43.1761 11.0422 43.4859Z" fill="#E74214"/>
<path d="M28.2031 10.4525C28.9896 8.47429 29.7761 6.51996 30.5626 4.5418C30.8963 3.73146 31.2061 2.94496 31.516 2.13463C31.5636 2.01546 31.6113 1.92013 31.7305 1.84863C31.9688 1.87247 32.1833 1.94396 32.374 2.06313C32.4693 2.27763 32.3501 2.49213 32.2786 2.6828C31.1823 5.30447 30.1575 7.97379 29.085 10.5955C28.9896 10.8338 28.9181 11.0721 28.6321 11.1436C28.4653 10.953 28.2985 10.7146 28.2031 10.4525Z" fill="#E74214"/>
<path d="M47.1034 27.136C47.2464 26.9453 47.294 26.7308 47.3179 26.4925C47.4132 26.2542 47.2702 25.9443 47.5324 25.7537C47.6754 25.4438 47.7469 25.134 47.7469 24.7765C47.9137 24.5858 47.8422 24.3475 47.866 24.133C48.0567 23.8708 47.9375 23.561 47.9614 23.275C48.152 22.9652 48.0329 22.6315 48.0567 22.2978C47.9614 22.1787 47.9137 22.0118 47.9375 21.8688C47.9375 21.7497 47.9852 21.6305 48.0805 21.5352C48.2474 21.988 48.1997 22.4885 48.2474 22.9652C48.438 25.6583 48.2235 28.3277 47.5085 30.9493C47.4847 30.997 47.4609 31.0447 47.437 31.0923C46.7697 30.6872 46.3407 30.0913 46.0547 29.3763C46.1262 29.0903 46.2454 28.852 46.3645 28.5898C46.5075 28.3753 46.6029 28.1608 46.6982 27.9225C46.8174 27.6603 46.865 27.3267 47.1034 27.136Z" fill="#E74214"/>
<path d="M8.3744 19.9619C7.77856 20.3194 7.0874 20.2479 6.42006 20.3671C4.77556 20.6292 3.10723 20.8437 1.4389 21.1059C1.17673 21.1536 0.914563 21.1059 0.652396 21.2012C0.485563 21.2727 0.437896 21.1297 0.414062 20.9867C0.414062 20.7007 0.437896 20.4147 0.533229 20.1526C1.89173 20.1287 3.25023 19.8189 4.5849 19.6759C5.3714 19.5806 6.1579 19.4376 6.9444 19.3184C7.13506 19.2946 7.3019 19.2707 7.3734 19.0801C7.85006 19.2469 8.0169 19.7236 8.3744 19.9619Z" fill="#E74214"/>
<path d="M16.2155 34.4043C16.7399 34.2851 16.8352 34.5234 16.8829 35.0239C16.9544 36.2633 17.145 37.5264 17.2642 38.7658C17.3834 39.9336 17.4787 41.0776 17.5979 42.2454C17.717 43.5086 17.86 44.7718 18.003 46.0349C18.0507 46.4639 18.0984 46.9168 18.1222 47.3458C18.146 47.5841 18.1222 47.7748 17.7885 47.7509C17.6694 47.7509 17.5502 47.7271 17.4549 47.6556C17.2404 46.6308 17.2165 45.5821 17.0974 44.5334C16.8114 41.9118 16.5492 39.2901 16.287 36.6684C16.2394 35.9296 16.0487 35.1669 16.2155 34.4043Z" fill="#E74214"/>
<path d="M47.5328 25.7291C47.5328 25.9913 47.4612 26.2535 47.3182 26.468C47.2467 26.1105 46.9607 26.2296 46.7462 26.2773C43.8624 26.8255 40.9786 27.3975 38.0947 27.9933C37.8564 28.041 37.4751 27.9695 37.4274 28.3985C37.2606 28.184 37.1652 27.9218 37.0938 27.6596C37.1891 27.469 37.3559 27.469 37.5466 27.4213C40.6687 26.8016 43.7909 26.1581 46.9131 25.5385C47.1276 25.5146 47.4136 25.3716 47.5328 25.7291Z" fill="#E74214"/>
<path d="M9.85125 28.6133C8.54041 28.6133 7.25341 28.9231 5.96641 29.09C4.56025 29.2568 3.17791 29.4951 1.77174 29.6858C1.43808 29.7335 1.10441 29.7573 0.794578 29.9003C0.675411 29.5905 0.603911 29.2806 0.580078 28.947C2.96341 28.5895 5.34674 28.2558 7.73008 27.9221C8.37358 27.8268 8.99325 27.7315 9.63675 27.66C9.87508 27.6361 10.0896 27.5646 10.3041 27.7553C10.1372 28.0413 9.99425 28.3273 9.85125 28.6133Z" fill="#E74214"/>
<path d="M0.222952 23.0117C0.246785 23.0594 0.246785 23.1071 0.270619 23.1547C0.270619 23.4646 0.246785 23.7982 0.246785 24.1081C0.246785 24.3941 0.246785 24.6801 0.246785 24.9661C0.246785 25.0614 0.246785 25.1329 0.246785 25.2282C0.246785 25.824 0.342119 25.8956 0.937952 25.8002C2.41562 25.5857 3.86945 25.3951 5.34712 25.1806C6.96779 24.9422 8.58845 24.7039 10.233 24.4656C10.6143 24.4179 11.0195 24.5132 11.3055 24.1319C11.4246 24.2749 11.52 24.4417 11.52 24.6324C11.6153 25.0614 11.3055 25.0852 11.0195 25.1329C9.85162 25.3236 8.68379 25.4666 7.53979 25.6334C5.34712 25.9194 3.17829 26.2531 0.985619 26.5629C0.747285 26.5867 0.485119 26.6821 0.270619 26.4914C0.103785 25.3236 0.0561188 24.1557 0.222952 23.0117Z" fill="#E74214"/>
<path d="M37.737 34.8096C38.0706 34.7619 38.1898 35.0718 38.3328 35.2624C39.6675 36.9308 40.9783 38.6229 42.2891 40.2913C42.3368 40.3389 42.3368 40.4343 42.3606 40.4819C42.2176 40.7918 42.0031 41.0301 41.7171 41.2446C40.9306 40.3389 40.2156 39.3618 39.453 38.4084C38.7856 37.5743 38.1421 36.7163 37.4748 35.8821C37.2126 35.5723 36.9743 35.2386 36.6406 35.0003C37.022 34.9049 37.3795 34.8334 37.737 34.8096Z" fill="#E74214"/>
<path d="M26.5835 44.9869C26.5596 44.9154 26.512 44.8201 26.4881 44.7486C26.3928 43.1756 26.1068 41.6026 25.9638 40.0296C25.8446 38.8141 25.7493 37.5986 25.6301 36.3831C25.5348 35.3583 25.4156 34.3573 25.3203 33.3324C25.4156 33.3324 25.511 33.3086 25.6063 33.3086C25.8923 33.3086 26.0353 33.3563 26.083 33.7138C26.2021 35.1199 26.3213 36.5261 26.512 37.9084C26.655 38.8856 26.6073 39.8866 26.941 40.8399C26.6788 42.1984 26.5596 43.5808 26.5835 44.9869Z" fill="#E74214"/>
<path d="M0.984375 30.7581C3.27238 30.4244 5.56037 30.1146 7.84837 29.7809C8.37271 29.7094 8.89704 29.5902 9.42138 29.5664C9.27838 29.8762 9.15921 30.2099 9.01621 30.5197C8.77787 30.7342 8.46804 30.6627 8.20587 30.7104C6.08471 31.0202 3.96354 31.3301 1.84237 31.6161C1.62787 31.6399 1.38954 31.7591 1.22271 31.4969C1.10354 31.2586 1.00821 31.0202 0.984375 30.7581Z" fill="#E74214"/>
<path d="M0.246094 26.468C1.41393 26.3011 2.58176 26.1581 3.77343 25.9913C5.20343 25.8006 6.63343 25.5861 8.08726 25.3955C9.11209 25.2525 10.1608 25.1095 11.1856 24.9665C11.4001 24.9427 11.4954 24.8235 11.5193 24.6328C11.6146 24.9665 12.0436 25.2525 11.6384 25.6338C10.9949 25.4431 10.3753 25.7053 9.75559 25.7768C8.32559 25.9437 6.89559 26.182 5.44176 26.3727C4.05943 26.5633 2.67709 26.7778 1.29476 26.9685C1.05643 26.9923 0.79426 26.9923 0.555927 27.04C0.22226 27.1115 0.436761 26.754 0.269927 26.7063C0.246094 26.611 0.246094 26.5395 0.246094 26.468Z" fill="#E74214"/>
<path d="M31.9693 13.7416C32.5174 12.7883 32.8273 11.7158 33.2324 10.7148C34.1381 8.52213 35.0199 6.30564 35.9018 4.11297C35.9733 3.94614 35.9971 3.80313 36.2116 3.7793C36.4023 3.89846 36.5691 3.9938 36.7598 4.11297C35.9494 6.18647 35.0914 8.23613 34.2573 10.2858C33.8759 11.2868 33.4708 12.264 33.0656 13.265C32.9703 13.4795 32.8988 13.694 32.7081 13.837C32.4698 13.837 32.2076 13.837 31.9693 13.837C31.9454 13.8131 31.9216 13.7893 31.9454 13.7893C31.9454 13.7416 31.9693 13.7416 31.9693 13.7416Z" fill="#E74214"/>
<path d="M8.61243 31.998C8.56477 32.1887 8.5171 32.4032 8.3741 32.57C6.39593 32.8799 4.39393 33.142 2.39193 33.428C2.20127 33.4519 2.0106 33.4519 1.84377 33.3089C1.67693 33.0229 1.55777 32.6892 1.48627 32.3555C1.9391 32.0695 2.46343 32.0933 2.98777 32.0218C4.7991 31.7835 6.5866 31.5214 8.3741 31.2592C8.5171 31.2354 8.6601 31.2115 8.8031 31.283C8.7316 31.5214 8.68393 31.7597 8.61243 31.998Z" fill="#E74214"/>
<path d="M47.104 27.1358C47.0802 27.4456 46.9372 27.7078 46.7703 27.9938C44.1963 28.4943 41.6223 29.0186 39.0483 29.5191C38.6908 29.5906 38.3095 29.6621 37.9758 29.8289C37.8805 29.5429 37.7613 29.2331 37.666 28.9471C38.7623 28.5896 39.9064 28.4704 41.0265 28.2321C42.9332 27.8269 44.8399 27.4694 46.7465 27.0881C46.8657 27.0404 46.9849 26.9689 47.104 27.1358Z" fill="#E74214"/>
<path d="M1.84375 33.308C3.05925 33.1411 4.25092 32.9981 5.46642 32.8313C6.30058 32.7121 7.13475 32.5691 7.99275 32.45C8.13575 32.4261 8.27875 32.4261 8.37408 32.5453C8.18342 32.9266 8.30258 33.3795 8.06425 33.737C6.34825 33.9515 4.65608 34.1898 2.96392 34.4281C2.74942 34.452 2.51108 34.5235 2.29658 34.3566C2.10592 34.0468 1.93908 33.6893 1.84375 33.308Z" fill="#E74214"/>
<path d="M28.1313 40.8164C28.751 41.1977 29.0846 41.8651 29.5136 42.4132C30.6815 43.8432 31.8016 45.2971 32.9218 46.7509C33.0171 46.8701 33.0648 46.9892 33.1363 47.1084C32.8741 47.2514 32.5881 47.3706 32.2783 47.4421C30.9436 45.7261 29.5851 44.0101 28.2743 42.2941C28.1551 42.1511 28.036 42.0557 27.8691 41.9842C27.9168 41.5791 27.9883 41.1977 28.1313 40.8164Z" fill="#E74214"/>
<path d="M10.9486 5.0664C10.7579 5.11407 10.6149 5.2809 10.4004 5.25706C11.7589 4.18456 13.2842 3.37423 14.8572 2.68307C15.9536 2.2064 17.0499 1.7774 18.2416 1.53906C18.1462 2.2064 17.8126 2.7784 17.5742 3.37423C17.4551 3.66023 17.0976 3.56489 16.8592 3.66023C16.8116 3.68406 16.7401 3.68406 16.6924 3.68406C16.3111 3.68406 15.9536 3.7794 15.5961 3.80323C15.2386 3.82706 14.9049 3.94623 14.5474 3.9939C14.2852 4.01773 14.0231 4.11306 13.7847 4.18456C13.5226 4.23223 13.2842 4.27989 13.0459 4.37523C12.9029 4.42289 12.7599 4.47056 12.6169 4.51823C12.4977 4.5659 12.3786 4.61356 12.2594 4.6374C12.0687 4.68506 11.9019 4.7804 11.7112 4.82807C11.4729 4.89957 11.2584 5.1379 10.9486 5.0664Z" fill="#E74214"/>
<path d="M10.2803 27.7558C9.04094 27.9226 7.82544 28.0656 6.5861 28.2325C5.17994 28.4231 3.77377 28.6376 2.39144 28.8283C2.03394 28.876 1.6526 28.9236 1.2951 28.9951C1.03294 29.0428 0.794604 29.0666 0.580104 28.9236C0.532437 28.7091 0.508604 28.4946 0.460938 28.2801C1.84327 28.018 3.24944 27.8511 4.63177 27.6605C6.39544 27.3983 8.1591 27.1361 9.92277 26.8978C10.1849 26.874 10.4709 26.7786 10.6378 27.0885C10.6139 27.3745 10.3518 27.5175 10.2803 27.7558Z" fill="#E74214"/>
<path d="M10.6138 27.1119C10.2087 26.8498 9.80349 27.0881 9.42215 27.1358C6.56215 27.5171 3.72599 27.9699 0.865986 28.3751C0.722986 28.3989 0.579986 28.3513 0.46082 28.2798C0.413153 28.0414 0.31782 27.7793 0.341653 27.5409C0.699153 27.9938 1.15199 27.6363 1.53332 27.6124C3.24932 27.4218 4.96532 27.1596 6.68132 26.8974C7.99215 26.7068 9.30299 26.5399 10.6138 26.3493C10.7807 26.3254 10.9237 26.3731 11.0905 26.3969C10.9952 26.6591 10.8045 26.8974 10.6138 27.1119Z" fill="#E74214"/>
<path d="M4.63094 10.7383C5.0361 11.2388 5.6081 11.5009 6.13244 11.8346C8.44427 13.3599 10.7561 14.8376 13.0679 16.3391C14.2119 17.0779 15.3321 17.8168 16.4761 18.5318C16.5714 18.5795 16.6668 18.6033 16.7621 18.651C16.6191 18.7463 16.7383 18.9846 16.5476 19.0799C16.3093 19.2229 16.1424 19.0323 15.9756 18.9369C13.5684 17.3878 11.1613 15.8148 8.7541 14.2418C7.3956 13.36 6.06094 12.4781 4.72627 11.6201C4.55944 11.5248 4.36877 11.4294 4.27344 11.2388C4.3211 11.0481 4.48794 10.8813 4.63094 10.7383Z" fill="#E74214"/>
<path d="M28.6562 11.143C29.2521 10.1658 29.5619 9.0695 29.9909 8.02083C30.8251 6.04267 31.6116 4.04067 32.3981 2.0625C32.6841 2.15783 33.0178 2.18166 33.2561 2.37233C32.8033 2.87283 32.6603 3.4925 32.4219 4.08833C31.4686 6.424 30.5391 8.75966 29.6096 11.0715C29.4904 11.3575 29.4666 11.7627 29.0376 11.8103C28.9184 11.5958 28.7754 11.3813 28.6562 11.143Z" fill="#E74214"/>
<path d="M29.0371 11.8107C29.6091 11.1195 29.7759 10.2616 30.1096 9.45122C31.0391 7.21089 31.9209 4.94672 32.8266 2.68255C32.8981 2.49189 33.0173 2.34888 33.2556 2.37272C33.3986 2.51572 33.6608 2.39655 33.7799 2.58721C33.5416 2.58721 33.4463 2.77788 33.3748 2.96855C32.1831 5.94772 30.9914 8.92688 29.7998 11.8822C29.7044 12.1444 29.5853 12.4066 29.4899 12.6687C29.3469 12.3827 29.1801 12.0967 29.0371 11.8107Z" fill="#E74214"/>
<path d="M29.2036 1.20448C28.8461 1.15681 28.7031 1.37131 28.5839 1.65731C27.8451 3.51631 27.1063 5.35148 26.3674 7.21048C26.2721 7.42498 26.1768 7.63947 26.0576 7.83014C25.8908 7.75864 25.8193 7.54414 25.6286 7.52031C25.6286 7.28198 25.3903 7.18664 25.2949 6.99597C25.4141 6.44781 25.6763 5.97114 25.8669 5.44681C26.3913 4.11214 26.9156 2.77748 27.4876 1.46664C27.5591 1.27598 27.5591 0.989978 27.8689 0.989978C28.3694 0.966145 28.7746 1.06148 29.2036 1.20448Z" fill="#E74214"/>
<path d="M8.80361 31.2826C7.80261 31.6163 6.73011 31.6401 5.68144 31.8069C4.48978 31.9976 3.27428 32.1644 2.08261 32.3313C1.89194 32.3551 1.70128 32.3551 1.51061 32.3551C1.34378 32.0929 1.27228 31.7831 1.22461 31.4971C2.01111 31.5209 2.74994 31.3303 3.51261 31.2349C4.91878 31.0681 6.30111 30.8298 7.70728 30.6391C8.13628 30.5676 8.58911 30.4961 9.01811 30.5438C9.01811 30.8059 8.89894 31.0443 8.80361 31.2826Z" fill="#E74214"/>
<path d="M15.2378 46.8215C14.9756 46.7976 14.7611 46.6546 14.5704 46.5116C14.1653 42.6983 13.8078 38.8611 13.3788 35.0478C13.3311 34.7141 13.2834 34.3805 13.5218 34.0706C13.6886 33.9991 13.8316 34.1183 13.9508 34.2136C14.1653 34.309 14.1891 34.4996 14.2129 34.7141C14.4274 37.312 14.7373 39.886 14.9756 42.4838C15.0948 43.6755 15.2139 44.8433 15.3569 46.035C15.4046 46.2733 15.4523 46.5831 15.2378 46.8215Z" fill="#E74214"/>
<path d="M46.4591 28.6141C46.3399 28.8763 46.2446 29.1146 46.1254 29.3768C46.0539 29.4959 46.0301 29.6628 45.8394 29.6866C43.5991 30.0918 41.3587 30.5446 39.1184 30.9736C38.7847 31.0451 38.5702 31.2119 38.3557 31.4264C38.2366 31.1404 38.1651 30.8544 38.1412 30.5446C37.9982 30.1871 38.2127 30.0441 38.4987 29.9726C38.8801 29.8773 39.2614 29.8058 39.6427 29.7343C41.6447 29.3529 43.6467 28.9478 45.6487 28.5664C45.9586 28.5188 46.2207 28.3996 46.4591 28.6141Z" fill="#E74214"/>
<path d="M35.2098 13.6458C34.757 13.5266 35.0668 13.2168 35.1145 13.05C35.7103 11.5246 36.3061 10.0231 36.9258 8.52163C37.4025 7.40147 37.7123 6.2098 38.3796 5.16113C38.5941 5.30413 38.8086 5.44713 39.0231 5.59013C38.1175 7.87813 37.188 10.19 36.2585 12.478C36.1155 12.8116 36.044 13.193 35.8056 13.5028C35.6388 13.622 35.4243 13.6458 35.2098 13.6458Z" fill="#E74214"/>
<path d="M15.5713 3.68404C15.9526 3.63637 16.3578 3.5172 16.7391 3.5887C16.8106 3.85087 17.0489 3.97004 17.2396 4.11304C19.2416 5.44771 21.2674 6.71087 23.2694 8.04554C23.4601 8.16471 23.6746 8.26004 23.7938 8.49837C23.6508 8.7367 23.3648 8.78437 23.1503 8.92737C23.0073 9.04654 22.8881 8.9512 22.7689 8.85587C20.4094 7.3067 18.0499 5.80521 15.7143 4.23221C15.5951 4.13687 14.9754 4.04154 15.5713 3.68404Z" fill="#E74214"/>
<path d="M37.7846 4.73171C37.2603 5.16071 37.1888 5.85187 36.9505 6.40004C35.9971 8.64037 35.1391 10.9284 34.2096 13.1925C34.0428 13.5977 34.1381 13.7645 34.5671 13.7407C34.1858 13.8837 33.7806 13.836 33.3755 13.836C33.2086 13.6454 33.2801 13.4309 33.3755 13.2402C34.4718 10.5709 35.5205 7.85388 36.6168 5.18454C36.736 4.89854 36.7598 4.46954 37.2365 4.42188C37.4748 4.42188 37.6416 4.56487 37.7846 4.73171Z" fill="#E74214"/>
<path d="M16.3339 19.8421C14.5464 18.6743 12.7589 17.5303 10.9476 16.3624C8.77878 14.9563 6.58611 13.5501 4.41728 12.1201C4.25045 12.0009 4.01211 11.9533 3.98828 11.6911C4.03595 11.5719 4.08361 11.4289 4.20278 11.3574C5.17995 11.8579 6.08561 12.5253 6.99128 13.1211C9.97045 15.0516 12.9496 17.0059 15.9526 18.9364C16.1671 19.0794 16.3816 19.1986 16.5246 19.4131C16.5246 19.5799 16.4054 19.6991 16.3339 19.8421Z" fill="#E74214"/>
<path d="M12.974 4.30337C13.2123 4.16037 13.4507 4.08887 13.7367 4.08887C14.9522 4.85153 16.1677 5.66186 17.3593 6.42453C18.8608 7.4017 20.3623 8.4027 21.8877 9.35604C22.0068 9.42754 22.126 9.52286 22.1975 9.64203C22.126 9.9042 21.84 9.9042 21.697 10.071C21.5063 10.1902 21.3633 10.0472 21.2203 9.95187C18.5987 8.2597 16.0008 6.5437 13.3792 4.85153C13.1647 4.7562 12.831 4.66087 12.974 4.30337Z" fill="#E74214"/>
<path d="M27.9168 0.989639C27.2256 2.32431 26.7728 3.7543 26.1769 5.13664C25.9148 5.7563 25.7956 6.44747 25.3189 6.99564C25.0329 6.70963 24.7469 6.42364 24.4609 6.13764C25.2236 4.58847 25.7718 2.92014 26.4629 1.34714C26.5821 1.08497 26.6298 0.727474 27.0826 0.894308C27.3448 0.870474 27.6546 0.846639 27.9168 0.989639Z" fill="#E74214"/>
<path d="M19.0988 34.2852C19.1703 35.6675 19.361 37.0498 19.504 38.456C19.647 39.6477 19.7185 40.8393 19.8615 42.031C19.9806 43.2703 20.1475 44.4858 20.2666 45.7013C20.362 46.607 20.4335 47.4888 20.505 48.3945C20.362 48.3945 20.1951 48.4183 20.076 48.323C19.6946 47.7272 19.79 47.0122 19.7185 46.3448C19.3133 42.603 18.9558 38.8373 18.5506 35.0955C18.5268 34.8333 18.5268 34.5473 18.2646 34.3805C18.0025 34.3805 17.7641 34.3567 17.502 34.3567C18.0263 34.2613 18.5506 34.309 19.0988 34.2852Z" fill="#E74214"/>
<path d="M27.0593 0.871019C26.7257 0.823353 26.7019 1.08552 26.6065 1.30002C26.0107 2.77768 25.4149 4.25535 24.819 5.75685C24.7475 5.94752 24.6999 6.13819 24.4615 6.13819C24.1755 5.92369 23.8895 5.70919 23.6035 5.49469C23.675 5.01802 23.9134 4.58902 24.104 4.16002C24.5569 3.03985 24.962 1.87202 25.5102 0.775688C25.5578 0.751854 25.6055 0.751854 25.6532 0.775688C26.1299 0.775688 26.6065 0.728019 27.0593 0.871019Z" fill="#E74214"/>
<path d="M18.2402 34.4049C18.5024 34.3573 18.6454 34.4288 18.6692 34.7624C18.8599 36.7883 19.0982 38.7903 19.2889 40.8161C19.4557 42.3891 19.5749 43.9859 19.7179 45.5589C19.8132 46.4884 19.9324 47.4179 20.0277 48.3474C19.8847 48.3236 19.7417 48.3236 19.5987 48.2998C19.5034 47.3464 19.3842 46.3931 19.2889 45.4636C19.1459 44.2243 19.0029 42.9611 18.8837 41.7218C18.7884 40.6731 18.6454 39.6006 18.5739 38.5519C18.4786 37.1458 18.2402 35.7873 18.2402 34.4049Z" fill="#E74214"/>
<path d="M15.5702 3.68359C15.3081 3.87426 15.4987 3.94576 15.6656 4.04109C17.1909 5.01826 18.7162 6.01926 20.2177 6.99643C21.1949 7.63993 22.1721 8.25959 23.1731 8.90309C23.0539 9.11759 22.8394 9.1891 22.6487 9.3321C22.3389 9.37976 22.1482 9.18909 21.9337 9.04609C19.5981 7.52076 17.2386 5.99543 14.9029 4.4701C14.7122 4.35093 14.3786 4.25559 14.4977 3.89809C14.8314 3.77893 15.1889 3.70743 15.5702 3.68359Z" fill="#E74214"/>
<path d="M16.2142 34.4047C16.4287 34.8814 16.3572 35.3819 16.4049 35.8585C16.6671 37.932 16.8577 40.0055 17.0484 42.0552C17.2152 43.6282 17.3582 45.225 17.4774 46.798C17.5012 47.084 17.7634 47.37 17.4774 47.656C17.2391 47.6799 17.0246 47.5607 16.8339 47.4415C16.9531 46.3929 16.7386 45.368 16.6432 44.3432C16.3334 41.1734 15.9997 38.0274 15.6899 34.8814C15.6661 34.7145 15.6422 34.5239 15.7852 34.3809C15.9282 34.4047 16.0712 34.4047 16.2142 34.4047Z" fill="#E74214"/>
<path d="M46.4597 28.6128C45.268 28.8273 44.1002 29.0418 42.9085 29.2802C41.4785 29.5423 40.0723 29.8522 38.6423 30.1143C38.3802 30.162 38.1657 30.2335 38.1657 30.5672C38.0465 30.3288 37.975 30.0905 37.9512 29.8283C37.975 29.59 38.1657 29.5185 38.3563 29.4947C41.0257 28.9703 43.695 28.446 46.3643 27.9217C46.5073 27.8978 46.6503 27.8502 46.7457 27.9932C46.7218 28.2077 46.6265 28.4222 46.4597 28.6128Z" fill="#E74214"/>
<path d="M38.3797 31.4254C38.332 31.0679 38.5465 30.9249 38.8563 30.8534C41.0252 30.4244 43.194 29.9954 45.3867 29.5902C45.5535 29.5664 45.7442 29.5902 45.911 29.5664C46.0302 29.9477 45.6965 30.1146 45.5535 30.3767C45.4343 30.5197 45.3152 30.6866 45.0768 30.6866C43.8375 30.8057 42.622 31.1156 41.4065 31.3301C40.6677 31.4731 39.9527 31.6399 39.2138 31.7829C38.9517 31.8306 38.7133 31.9497 38.475 32.0689C38.3797 31.8782 38.4035 31.6399 38.3797 31.4254Z" fill="#E74214"/>
<path d="M43.1223 39.6002C41.9545 38.0987 40.7867 36.6211 39.6427 35.1196C39.4997 34.9289 39.309 34.7382 39.2852 34.4761C39.5235 34.1424 39.8572 34.0947 40.2147 34.0947C40.9535 34.8574 41.5732 35.7392 42.2405 36.5734C42.6933 37.1216 43.1223 37.6936 43.5513 38.2656C43.6467 38.4086 43.8135 38.5277 43.7897 38.7184C43.5752 39.0759 43.4083 39.3857 43.1223 39.6002Z" fill="#E74214"/>
<path d="M10.9473 5.0657C11.1856 4.94653 11.4239 4.80353 11.6861 4.75586C11.8291 4.94653 12.0198 5.0657 12.2104 5.18486C14.9274 6.94853 17.6683 8.73603 20.3853 10.4997C20.5759 10.6189 20.7904 10.738 20.9096 10.9525C20.7904 11.0955 20.6713 11.2385 20.5521 11.3815C19.1221 10.452 17.6921 9.54636 16.2621 8.61686C14.5699 7.52053 12.9016 6.42419 11.2094 5.32786C11.1141 5.23252 10.9949 5.18486 10.9473 5.0657Z" fill="#E74214"/>
<path d="M15.7863 34.3805C15.9532 35.9773 16.1438 37.5742 16.3107 39.171C16.4775 40.744 16.5967 42.3408 16.7397 43.9138C16.835 44.9148 16.9542 45.9158 17.0495 46.9168C17.0733 47.1075 17.1687 47.3697 16.835 47.4412C16.7635 47.4412 16.6682 47.4412 16.6205 47.3697C16.406 46.9883 16.406 46.5593 16.3583 46.1303C15.977 42.46 15.6195 38.7658 15.2143 35.0955C15.1905 34.8095 15.119 34.5235 15.3335 34.2852C15.4765 34.2852 15.6195 34.2852 15.7625 34.309C15.7863 34.3328 15.7863 34.3567 15.7863 34.3805Z" fill="#E74214"/>
<path d="M36.6627 35.0244C36.8533 35.0244 37.0202 35.0721 37.1393 35.2151C38.5932 37.0741 40.0708 38.9569 41.5247 40.8159C41.62 40.9351 41.7392 41.0542 41.7392 41.2449C41.62 41.4117 41.5247 41.6024 41.3102 41.6501C39.618 39.6004 37.9735 37.4792 36.3528 35.3581C36.2337 35.2151 36.1145 35.0959 35.9238 35.1197C36.1622 35.0244 36.4005 35.0244 36.6627 35.0244Z" fill="#E74214"/>
<path d="M40.2157 6.56733C40.0012 6.56733 39.9058 6.73416 39.8343 6.901C39.0717 8.78383 38.309 10.6667 37.5463 12.5733C37.4987 12.6925 37.3318 12.8593 37.5225 13.0023C37.2365 13.2168 36.879 13.2168 36.5453 13.3122C36.1878 13.1692 36.4262 12.9308 36.4977 12.764C36.9505 11.5962 37.4272 10.4283 37.9038 9.26049C38.2852 8.30716 38.6665 7.35383 39.0717 6.40049C39.1432 6.20983 39.167 5.97149 39.4292 5.92383C39.739 6.09066 40.0012 6.30516 40.2157 6.56733Z" fill="#E74214"/>
<path d="M20.9352 10.9526C20.6015 10.8811 20.3632 10.6189 20.0772 10.4521C17.384 8.71224 14.6908 6.94858 12.0215 5.18492C11.8785 5.08958 11.5448 5.06574 11.7117 4.73208C11.8785 4.63674 12.0453 4.54141 12.2598 4.51758C15.0245 6.40041 17.8607 8.16408 20.6492 10.0231C20.8875 10.1661 21.1735 10.2852 21.2212 10.6189C21.1973 10.7857 21.0543 10.8811 20.9352 10.9526Z" fill="#E74214"/>
<path d="M2.29688 34.3807C3.98904 34.1424 5.68121 33.9041 7.37337 33.6657C7.61171 33.6419 7.87387 33.5466 8.08837 33.7611C8.04071 34.0709 8.01687 34.4046 7.96921 34.7144C7.80237 34.8812 7.58787 34.8812 7.37337 34.9051C6.06254 35.0957 4.72788 35.3102 3.41704 35.4532C3.20254 35.4771 2.98804 35.5009 2.79738 35.3579C2.55904 35.0719 2.41604 34.7382 2.29688 34.3807Z" fill="#E74214"/>
<path d="M23.7932 8.47463C22.3632 7.56897 20.9571 6.63946 19.5271 5.7338C18.6214 5.1618 17.7396 4.56597 16.8577 3.97013C16.7147 3.8748 16.4764 3.77946 16.7386 3.56496C16.7862 3.56496 16.8101 3.54113 16.8577 3.54113C17.0961 3.5173 17.3582 3.4458 17.5966 3.56496C17.9064 4.04163 18.4307 4.20846 18.8836 4.49446C20.5042 5.56696 22.1249 6.61563 23.7456 7.6643C23.9601 7.8073 24.1507 7.9503 24.2699 8.18863C24.1507 8.40313 23.9124 8.35547 23.7932 8.47463Z" fill="#E74214"/>
<path d="M14.499 3.89761C14.5705 4.15978 14.8088 4.27895 14.9995 4.39812C17.4782 6.01878 19.9807 7.61562 22.4593 9.21245C22.507 9.26012 22.5785 9.28395 22.6262 9.33162C22.5547 9.52229 22.3163 9.52228 22.1972 9.66528C21.0293 9.06945 19.9807 8.25912 18.8843 7.56795C17.3352 6.59079 15.786 5.56595 14.2368 4.56495C14.0462 4.44579 13.8555 4.30279 13.7363 4.08829C13.9747 3.99295 14.213 3.87378 14.499 3.89761Z" fill="#E74214"/>
<path d="M3.6563 12.2158C4.75264 13.0738 5.96814 13.7411 7.11214 14.5276C8.54214 15.5048 10.0198 16.4343 11.4975 17.3876C13.0466 18.3886 14.5958 19.3897 16.145 20.4145C16.0973 20.5098 16.0496 20.629 16.002 20.7243C15.7636 20.8673 15.5968 20.6767 15.43 20.5575C12.9513 18.913 10.4726 17.2923 7.97014 15.6955C6.5878 14.8136 5.2293 13.908 3.84697 13.0023C3.6563 12.8832 3.48947 12.7878 3.41797 12.5495C3.46564 12.4065 3.53714 12.2873 3.6563 12.2158Z" fill="#E74214"/>
<path d="M37.2354 4.42214C36.6634 4.9703 36.5442 5.73297 36.2582 6.4003C35.3049 8.6883 34.3992 11.0001 33.4459 13.312C33.3744 13.4788 33.3267 13.6456 33.3505 13.8363C33.136 13.8363 32.9215 13.8363 32.707 13.8363C33.708 11.3576 34.6852 8.87897 35.6862 6.4003C35.9484 5.78063 36.2105 5.16097 36.4489 4.51747C36.5204 4.35063 36.6157 4.20764 36.7587 4.1123C36.9255 4.20764 37.0685 4.30297 37.2354 4.42214Z" fill="#E74214"/>
<path d="M48.0555 21.8688C48.0555 22.0118 48.0555 22.1548 48.0555 22.2978C44.5282 22.9889 41.0009 23.6801 37.4735 24.3713C36.9969 24.4666 36.544 24.5619 36.0674 24.6573C35.8767 24.7049 35.6622 24.7288 35.6384 24.9671C35.5192 24.8003 35.3047 24.6811 35.3047 24.4428C35.4239 24.1806 35.686 24.1329 35.9244 24.0853C39.7854 23.3703 43.6464 22.5361 47.5074 21.8211C47.6742 21.7734 47.8649 21.7258 48.0555 21.8688Z" fill="#E74214"/>
<path d="M48.0571 21.8685C44.5298 22.5596 41.0025 23.2508 37.4751 23.9658C36.7363 24.1088 35.9975 24.1326 35.3063 24.4425C35.1871 24.371 35.1395 24.2518 35.0918 24.1326C35.4493 23.7751 35.9498 23.8466 36.3788 23.7513C40.2636 22.9648 44.1723 22.2021 48.0571 21.4395C48.081 21.4633 48.081 21.511 48.081 21.5348C48.0571 21.654 48.0571 21.7493 48.0571 21.8685Z" fill="#E74214"/>
<path d="M3.44104 12.5498C5.96737 14.1943 8.4937 15.8626 11.02 17.5071C12.5692 18.5081 14.1184 19.533 15.6675 20.534C15.7629 20.6055 15.8582 20.7008 16.0012 20.7008C16.025 20.8438 15.9297 20.9153 15.882 21.0106C15.4054 20.7246 14.9287 20.4625 14.4759 20.1526C11.5682 18.2698 8.68437 16.3631 5.7767 14.4803C5.10937 14.0513 4.44204 13.6223 3.7747 13.1695C3.60787 13.0503 3.36954 12.9788 3.3457 12.7166C3.36954 12.669 3.39337 12.6213 3.44104 12.5498Z" fill="#E74214"/>
<path d="M39.4531 5.92409C38.476 8.30742 37.4988 10.6908 36.5216 13.0741C36.474 13.1694 36.474 13.2409 36.5693 13.3124C36.331 13.4554 36.0688 13.4793 35.8066 13.5269C35.8543 12.8119 36.2356 12.2161 36.474 11.5726C37.1651 9.76126 37.904 7.97376 38.619 6.18626C38.7143 5.97176 38.762 5.73342 39.0003 5.61426C39.2148 5.66192 39.334 5.78109 39.4531 5.92409Z" fill="#E74214"/>
<path d="M43.7656 38.7421C42.6216 37.2883 41.4538 35.8344 40.3098 34.3806C40.2621 34.3329 40.2621 34.2376 40.2383 34.1899C40.4528 33.9039 40.7388 33.8324 41.0724 33.8086C41.6921 34.3568 42.1211 35.0718 42.6216 35.6914C43.2174 36.4303 43.8133 37.1453 44.3376 37.9318C44.1946 38.2416 44.0278 38.5276 43.7656 38.7421Z" fill="#E74214"/>
<path d="M15.3568 34.2856C15.4283 35.6441 15.619 37.0026 15.762 38.3372C15.8811 39.5289 15.9765 40.7206 16.1195 41.9361C16.2386 43.1992 16.4055 44.4624 16.5246 45.7256C16.5723 46.2737 16.7153 46.8219 16.6438 47.3701C16.4055 47.3462 16.191 47.2747 16.0003 47.1317C16.1671 46.5836 16.0003 46.0354 15.9288 45.4872C15.619 42.5319 15.333 39.5766 15.0231 36.6212C14.9516 35.8586 14.7371 35.0721 14.8801 34.2856C14.9755 34.2141 15.047 34.2141 15.1423 34.2617C15.2138 34.2856 15.2853 34.2856 15.3568 34.2856Z" fill="#E74214"/>
<path d="M13.5212 34.0471C13.5212 35.5247 13.7834 37.0024 13.9264 38.4801C14.0455 39.6956 14.1409 40.9111 14.26 42.1266C14.3792 43.3659 14.546 44.6053 14.6652 45.8684C14.689 46.0829 14.7844 46.3212 14.546 46.5119H14.4984L14.4507 46.4881C14.3315 46.3928 14.2362 46.2736 14.117 46.1783C14.403 45.5586 14.0932 44.9389 14.0694 44.3193C14.0455 43.4374 13.9025 42.5556 13.8072 41.6737C13.6642 40.3867 13.5212 39.0998 13.402 37.8366C13.2829 36.5496 13.1637 35.2626 13.0684 33.9756C13.2352 33.9994 13.3782 34.0232 13.5212 34.0471Z" fill="#E74214"/>
<path d="M38.5004 32.0695C38.5242 31.855 38.6434 31.7597 38.8817 31.712C40.8122 31.3307 42.7189 30.9494 44.6256 30.568C44.8162 30.5204 45.0069 30.4727 45.1737 30.6634C45.2214 30.8779 45.1022 31.0209 44.9831 31.1639C44.7924 31.3545 44.6256 31.5929 44.2919 31.569C43.6722 31.5452 43.1002 31.7359 42.5044 31.855C41.4319 32.0457 40.3832 32.284 39.3107 32.4747C38.9056 32.5462 38.7626 32.7607 38.7387 33.1659C38.7387 33.6187 38.8579 34.0954 38.5957 34.5244C38.5481 34.5482 38.5242 34.5959 38.4766 34.6197C38.5957 33.7617 38.5242 32.9037 38.5004 32.0695Z" fill="#E74214"/>
<path d="M2.77344 35.3583C4.22727 35.1677 5.70494 34.977 7.15877 34.7625C7.42094 34.7148 7.6831 34.7148 7.94527 34.7148C7.94527 35.3583 7.94527 36.0018 7.94527 36.6453C7.77844 36.6453 7.7546 36.5262 7.73077 36.407C7.65927 35.8112 7.63544 35.7873 7.0396 35.8827C6.01477 36.0257 4.98994 36.1687 3.9651 36.3117C3.72677 36.3355 3.4646 36.407 3.2501 36.2163C3.01177 35.9542 2.8926 35.6682 2.77344 35.3583Z" fill="#E74214"/>
<path d="M44.3394 37.9326C43.7674 37.5036 43.4337 36.884 42.9809 36.3358C42.3374 35.5255 41.6462 34.739 41.0742 33.881C41.2649 33.5473 41.5747 33.4281 41.9322 33.4043C42.9571 34.596 43.9104 35.8353 44.8637 37.0985C44.7446 37.4083 44.5539 37.6705 44.3394 37.9326Z" fill="#E74214"/>
<path d="M14.9281 34.309C15.0711 35.6675 15.2141 37.0498 15.3571 38.4083C15.5239 39.9575 15.6908 41.4828 15.8576 43.032C15.9768 44.2475 16.0959 45.463 16.2151 46.6785C16.2389 46.8453 16.3104 47.0836 16.0006 47.1313C15.9053 47.1313 15.8338 47.1075 15.7623 47.036C15.5239 44.8433 15.3094 42.6506 15.0949 40.4818C14.9043 38.6228 14.7136 36.74 14.4991 34.881C14.4753 34.6665 14.4753 34.452 14.6659 34.309C14.7374 34.2375 14.8328 34.2136 14.9281 34.309Z" fill="#E74214"/>
<path d="M15.2382 46.8221C15.1905 45.4159 14.976 44.0574 14.833 42.6751C14.7377 41.8647 14.6662 41.0544 14.5947 40.2441C14.4517 38.9332 14.3087 37.6224 14.1895 36.3116C14.118 35.6204 14.118 34.9054 13.9512 34.2142C14.0942 34.1666 14.2372 34.1189 14.3802 34.2142C14.5708 34.5717 14.547 34.9769 14.5708 35.3582C14.69 36.9312 14.8807 38.5042 15.0475 40.0534C15.2382 41.9601 15.405 43.8667 15.6672 45.7496C15.7148 46.0356 15.6672 46.3216 15.691 46.6076C15.691 46.7506 15.691 46.9412 15.4527 46.9412C15.3573 46.9174 15.2858 46.8936 15.2382 46.8221Z" fill="#E74214"/>
<path d="M44.8632 37.074C44.1244 36.5496 43.7192 35.7393 43.1472 35.072C42.7182 34.5476 42.2415 34.0471 41.9317 33.4275C42.1462 33.0938 42.4084 32.8793 42.8135 32.8555C43.5285 33.8326 44.2912 34.7621 45.0539 35.7155C45.1969 35.9061 45.3875 36.0491 45.2922 36.3113C45.1969 36.6211 45.0539 36.8595 44.8632 37.074Z" fill="#E74214"/>
<path d="M19.4088 24.9667C19.3611 24.776 19.3611 24.6092 19.4088 24.4424C19.671 24.2994 19.814 24.49 19.957 24.633C22.102 26.3967 25.1765 26.0392 26.7971 23.346C27.1308 22.7979 27.2738 22.1305 27.3215 21.4632C27.3453 21.2725 27.2261 20.9865 27.5598 20.915C27.7505 21.0104 27.8935 21.1534 28.0126 21.344C27.8458 21.9637 27.7743 22.631 27.5121 23.2507C26.9401 24.6092 25.9868 25.491 24.6283 26.0154C22.9838 26.6589 21.4108 26.4205 19.9331 25.491C19.7425 25.3242 19.5756 25.1574 19.4088 24.9667Z" fill="#E74214"/>
<path d="M16.525 19.4137C16.1675 19.1992 15.7861 19.0085 15.4286 18.7702C12.521 16.8874 9.63713 14.9807 6.72946 13.0979C5.96679 12.5974 5.20413 12.0969 4.46529 11.6202C4.36996 11.5487 4.25079 11.501 4.20312 11.358C4.22696 11.3342 4.25079 11.2865 4.27463 11.2627C5.25179 11.7394 6.10979 12.3829 7.01546 12.9787C10.09 14.9807 13.1883 16.9827 16.2628 18.9847C16.3581 19.0324 16.4535 19.0562 16.5488 19.1039C16.525 19.1992 16.525 19.2945 16.525 19.4137Z" fill="#E74214"/>
<path d="M27.583 20.8918C27.3924 21.4877 27.4162 22.1312 27.2017 22.7508C26.8442 23.9187 26.0339 24.7052 25.0567 25.2772C23.3169 26.302 20.9812 25.8492 19.7419 24.586C19.6465 24.4907 19.5512 24.4192 19.4082 24.4192C19.4082 24.2523 19.432 24.0617 19.432 23.8948C19.718 23.8472 19.8372 24.0855 20.004 24.2285C20.5999 24.7528 21.2434 25.1818 22.0775 25.2772C24.723 25.5632 26.4152 24.2523 26.9395 21.8928C26.9872 21.6307 26.9872 21.3685 27.011 21.1063C27.0349 20.9395 26.9872 20.7012 27.2732 20.7012C27.4162 20.7012 27.5115 20.7727 27.583 20.8918Z" fill="#E74214"/>
<path d="M28.2265 21.6299C28.4887 21.6775 28.5602 21.892 28.6555 22.0827C28.2027 24.1085 27.1302 25.6815 25.1758 26.5395C23.436 27.3022 21.7438 27.183 20.0755 26.325C19.8372 26.2059 19.6703 26.039 19.5273 25.8245C19.5273 25.3955 19.575 25.3717 19.9563 25.5862C20.5998 25.9437 21.2433 26.2535 21.9822 26.3727C24.7468 26.754 27.3685 25.1334 27.9643 22.2257C28.012 22.0112 27.9882 21.7729 28.2265 21.6299Z" fill="#E74214"/>
<path d="M25.6767 0.775947C25.6291 0.775947 25.5814 0.799775 25.5576 0.799775C25.2477 1.01427 24.9141 0.918943 24.5804 0.942776C23.7939 0.918943 23.7939 0.918943 23.5079 1.65778C23.1981 2.44428 22.8882 3.25461 22.5546 4.04111C22.4592 4.27944 22.3877 4.56544 22.0302 4.54161C21.7681 4.47011 21.5059 4.39861 21.2676 4.23178C21.7204 3.08778 22.1494 1.91994 22.6737 0.799775C23.6509 0.680608 24.6519 0.609114 25.6767 0.775947Z" fill="#E74214"/>
<path d="M25.9627 20.0332C26.0819 20.0332 26.201 20.0332 26.2725 20.1524C26.8684 20.9389 26.6777 21.8207 26.344 22.6072C25.1524 25.4195 22.0302 25.5387 20.2427 24.0372C19.9567 23.7989 19.7422 23.5367 19.623 23.1792C19.6707 23.0362 19.6707 22.8455 19.7899 22.7264C20.0759 22.6787 20.1474 22.917 20.2427 23.0839C21.053 24.1802 22.4592 24.6569 23.7462 24.2517C24.9855 23.8704 25.9389 22.5834 25.9627 21.2725C25.9627 21.0342 25.8912 20.8197 25.8435 20.5814C25.8674 20.3907 25.7959 20.2 25.9627 20.0332Z" fill="#E74214"/>
<path d="M12.973 4.30273C13.0445 4.73173 13.4496 4.80323 13.7356 4.9939C16.0475 6.51923 18.3831 8.02073 20.695 9.52223C21.0286 9.73673 21.3623 9.9274 21.696 10.1181C21.6006 10.2134 21.5291 10.3326 21.4338 10.4279C21.267 10.4517 21.124 10.3564 21.0048 10.2611C18.3116 8.47357 15.5946 6.7814 12.9253 4.97006C12.7346 4.8509 12.4248 4.7794 12.5678 4.4219C12.687 4.3504 12.83 4.30273 12.973 4.30273Z" fill="#E74214"/>
<path d="M45.2912 36.3593C45.0528 35.7873 44.5523 35.3821 44.1948 34.8816C43.7897 34.3096 43.313 33.7853 42.884 33.2133C42.8363 33.1418 42.8363 33.0226 42.8125 32.9034C42.9078 32.5936 43.1462 32.4506 43.456 32.4268C44.0757 32.9988 44.5285 33.7376 45.0767 34.3811C45.2435 34.5718 45.4103 34.8101 45.5772 35.0008C45.7202 35.1676 45.8393 35.3344 45.7202 35.5728C45.601 35.8588 45.458 36.1209 45.2912 36.3593Z" fill="#E74214"/>
<path d="M3.22656 36.2168C4.44206 36.05 5.63373 35.907 6.84923 35.7401C6.87306 35.7401 6.92073 35.7163 6.94456 35.7163C7.85023 35.5256 7.85023 35.5256 7.85023 36.4313C7.7549 36.5266 7.63573 36.5505 7.51656 36.5743C6.3964 36.7411 5.2524 36.9318 4.13223 37.051C3.9654 37.0748 3.8224 37.0748 3.6794 36.9795C3.4649 36.7411 3.3219 36.479 3.22656 36.2168Z" fill="#E74214"/>
<path d="M19.957 27.1112C19.814 26.9682 19.7425 26.8014 19.7425 26.6107C19.7187 26.3724 19.8855 26.42 20.0285 26.3962C20.1477 26.42 20.243 26.4677 20.3384 26.5154C21.7684 27.2065 23.246 27.3495 24.7475 26.7775C24.7952 26.7537 24.8429 26.7299 24.8905 26.7299C25.3434 26.5869 25.7724 26.3723 26.1537 26.0863C27.2262 25.2283 28.108 24.2273 28.4655 22.8688C28.5132 22.6782 28.5132 22.416 28.823 22.416C28.8945 22.559 28.966 22.702 29.0375 22.845C28.537 25.2283 26.1537 27.3257 23.7704 27.6117C22.5787 27.7547 21.4585 27.6117 20.3622 27.1827C20.243 27.1112 20.1 27.0397 19.957 27.1112Z" fill="#E74214"/>
<path d="M45.6958 35.5719C45.529 34.9523 45.0046 34.5709 44.6471 34.0704C44.2658 33.5223 43.8368 32.9979 43.4316 32.4736C43.527 32.0684 43.8606 31.8778 44.1943 31.7109C44.7901 32.5689 45.4336 33.3793 46.1248 34.1896C46.1725 34.2611 46.2201 34.3326 46.244 34.4279C46.0771 34.8093 45.958 35.2144 45.6958 35.5719Z" fill="#E74214"/>
<path d="M25.9631 20.0336C25.9631 20.6295 26.2014 21.1776 26.1061 21.7973C25.9154 22.9413 24.6761 24.2521 23.5559 24.419C22.0306 24.6811 20.8389 24.1806 20.0286 22.8698C19.9809 22.7983 19.8856 22.7506 19.8379 22.703C19.8856 22.6315 19.9094 22.56 19.9571 22.4885C20.2907 22.3216 20.4099 22.6315 20.5291 22.8221C21.0296 23.4895 21.6969 23.8946 22.5311 23.99C24.1994 24.2045 25.5817 22.7506 25.6056 21.4636C25.6056 21.0823 25.6294 20.6771 25.5102 20.2958C25.4626 20.1528 25.4149 20.0098 25.5341 19.8906C25.7009 19.9145 25.8439 19.9145 25.9631 20.0336Z" fill="#E74214"/>
<path d="M22.6509 0.799611C22.5556 1.58611 22.1504 2.25345 21.8644 2.96845C21.6976 3.39745 21.6499 3.89795 21.2447 4.20778C20.9111 4.13628 20.5774 4.06478 20.2676 3.89794C20.7442 3.23061 20.9349 2.42028 21.2686 1.68145C21.3877 1.41928 21.4354 1.10945 21.6976 0.89495C21.9836 0.799617 22.3172 0.775778 22.6509 0.799611Z" fill="#E74214"/>
<path d="M46.2455 34.4044C45.4352 33.5941 44.6487 32.7838 44.1959 31.7351C44.1482 31.5444 44.2435 31.4968 44.4104 31.4968C44.6487 31.4253 44.744 31.1631 44.9347 31.0439C45.5067 31.8066 46.1502 32.5454 46.6745 33.3319C46.603 33.7133 46.46 34.0708 46.2455 34.4044Z" fill="#E74214"/>
<path d="M21.6724 0.8953C21.3387 1.80097 20.9812 2.6828 20.6476 3.58846C20.5761 3.77913 20.4569 3.89829 20.2662 3.89829C19.9326 3.87446 19.6227 3.80296 19.2891 3.6838C19.6466 3.01646 19.8611 2.30147 20.1709 1.6103C20.2901 1.34813 20.3854 1.06213 20.7191 1.01447C21.0289 0.942967 21.3387 0.871467 21.6724 0.8953Z" fill="#E74214"/>
<path d="M19.957 27.1119C20.0285 26.802 20.1954 26.9212 20.3622 26.9927C22.0544 27.7315 23.7942 27.7315 25.4625 26.9689C26.9164 26.3015 28.0127 25.2052 28.6324 23.6799C28.7515 23.3939 28.7754 23.0602 29.0375 22.8457C29.1567 23.0364 29.2282 23.2509 29.252 23.4892C29.0852 23.5845 29.0375 23.7752 28.966 23.9182C28.0127 26.0155 26.392 27.3025 24.1279 27.803C23.9134 27.8507 23.7227 27.946 23.5082 27.9699C22.6979 27.9222 21.8637 27.9699 21.0772 27.7315C20.6959 27.6124 20.3145 27.517 20.0047 27.2549C20.0047 27.1834 19.9809 27.1357 19.957 27.1119Z" fill="#E74214"/>
<path d="M15.4534 46.9174C15.6679 46.6314 15.5725 46.2978 15.5487 45.9879C15.358 43.8191 15.1435 41.6264 14.9052 39.4576C14.7145 37.6939 14.4762 35.9541 14.3809 34.1904C14.4524 34.1904 14.5239 34.1904 14.5954 34.2143C14.643 34.2381 14.6669 34.2619 14.6907 34.3096C14.5239 34.5718 14.643 34.8101 14.6669 35.0723C14.8099 36.2878 14.8814 37.5033 15.0244 38.7188C15.1435 39.9581 15.3104 41.2213 15.4295 42.4606C15.501 43.1994 15.5964 43.9383 15.644 44.6771C15.6917 45.3444 15.7394 46.0118 15.8585 46.6791C15.8824 46.8221 15.8824 46.9651 15.7394 47.0604C15.644 47.0366 15.5249 47.0128 15.4534 46.9174Z" fill="#E74214"/>
<path d="M20.6962 1.01367C20.1957 1.49034 20.1481 2.20534 19.8382 2.77734C19.6714 3.08717 19.7429 3.54 19.2901 3.683C19.0517 3.683 18.8134 3.683 18.5751 3.65917C18.5036 3.58767 18.3606 3.63534 18.2891 3.51617C18.4082 2.72967 18.7896 2.0385 19.0994 1.3235C19.6237 1.15667 20.1719 1.06134 20.6962 1.01367Z" fill="#E74214"/>
<path d="M20.1953 22.0826C20.2668 21.9157 20.3621 21.7727 20.5051 21.6536C20.7911 21.6774 20.7673 21.9396 20.8626 22.1302C21.2678 22.9167 21.9351 23.3934 22.817 23.4172C23.6511 23.4172 24.3185 23.0359 24.7236 22.2732C25.0573 21.6536 25.0335 21.0101 24.819 20.3666C24.7475 20.1997 24.5806 20.0329 24.676 19.8184C24.7475 19.7946 24.8428 19.7946 24.9143 19.8422C24.9858 19.8422 25.0335 19.8422 25.105 19.8661C25.6055 20.1997 25.6055 20.7479 25.6293 21.2484C25.6531 22.5831 24.5806 23.8224 23.2698 24.0131C21.9113 24.2037 20.6243 23.3934 20.1953 22.0826Z" fill="#E74214"/>
<path d="M8.25424 38.5516C8.32574 38.8138 8.39724 39.0521 8.46874 39.3143C8.37341 39.4573 8.20657 39.5049 8.06357 39.5288C7.37241 39.6003 6.68124 39.7194 5.99007 39.8148C5.84707 39.8386 5.70407 39.8148 5.58491 39.7433C5.37041 39.4573 5.15591 39.1713 4.94141 38.8853C5.94241 38.4086 6.99107 38.4086 8.06357 38.3848C8.15891 38.3848 8.20657 38.4801 8.25424 38.5516Z" fill="#E74214"/>
<path d="M24.6747 19.8429C25.7472 21.3921 24.8177 23.4418 22.9587 23.5609C22.0769 23.6086 21.1712 23.1558 20.6946 22.0833C20.6231 21.9403 20.5754 21.7973 20.5039 21.6543C20.5754 21.5113 20.6707 21.3921 20.8137 21.2968C21.0044 21.3683 21.0282 21.5589 21.0997 21.7258C21.5049 22.7983 22.5536 23.2988 23.4831 22.8936C24.5317 22.4408 24.8892 21.4874 24.4126 20.3911C24.1981 19.8906 24.2219 19.7953 24.6747 19.8429Z" fill="#E74214"/>
<path d="M20.29 26.5877C20.1947 26.5877 20.1232 26.5639 20.0755 26.4924C19.9087 26.3732 19.6942 26.3255 19.5512 26.1825C19.5512 26.0872 19.5273 25.968 19.5273 25.8727C20.576 26.5877 21.6962 26.9452 22.9593 26.9452C25.152 26.9214 27.3208 25.4199 28.1312 23.3702C28.298 22.965 28.2742 22.4407 28.6555 22.1309C28.7747 22.2024 28.8223 22.3215 28.8462 22.4645C28.6793 22.5599 28.6793 22.7029 28.6317 22.8697C28.298 24.252 27.4162 25.253 26.3913 26.1587C26.3437 26.2064 26.2483 26.2064 26.2007 26.2302C25.7955 26.4685 25.3665 26.683 24.9137 26.8737C23.3168 27.398 21.7915 27.2789 20.29 26.5877Z" fill="#E74214"/>
<path d="M12.5692 4.42188C12.5692 4.63637 12.736 4.70788 12.9029 4.80321C14.7857 6.01871 16.6924 7.25804 18.5752 8.47354C19.5285 9.09321 20.4819 9.76054 21.459 10.404C21.3875 10.4755 21.316 10.547 21.2445 10.6185C19.743 9.49837 18.1462 8.56888 16.597 7.54404C15.31 6.68604 14.023 5.85187 12.736 5.01771C12.5692 4.89854 12.2832 4.85087 12.2832 4.54104C12.3547 4.49337 12.45 4.46954 12.5692 4.42188Z" fill="#E74214"/>
<path d="M3.6543 36.9544C5.06046 36.7876 6.4428 36.5016 7.84896 36.4062C7.8728 36.4778 7.92046 36.5492 7.9443 36.6207C7.9443 36.7637 7.9443 36.9067 7.96813 37.0497C7.82513 37.2166 7.63446 37.2404 7.4438 37.2881C6.49046 37.4311 5.53713 37.5502 4.5838 37.6932C4.39313 37.7171 4.2263 37.7171 4.0833 37.5979C3.89263 37.4311 3.74963 37.2166 3.6543 36.9544Z" fill="#E74214"/>
<path d="M21.1254 21.01C21.2922 20.8193 21.4829 20.6525 21.7451 20.5572C22.0549 20.6048 21.8881 20.7955 21.8404 20.9385C21.6974 21.5105 21.9834 22.0348 22.5554 22.2493C22.9844 22.4162 23.5564 22.1302 23.7709 21.6535C23.9854 21.1768 23.8424 20.6763 23.3657 20.3665C23.2227 20.2712 22.9367 20.2712 23.0797 19.9852C23.2942 19.9137 23.4849 19.8422 23.7232 19.866C24.4382 20.2712 24.7481 20.9623 24.5336 21.6773C24.2952 22.4877 23.4849 23.0597 22.6746 22.9882C22.5077 22.9643 22.3171 22.9167 22.1502 22.869C21.7689 22.6783 21.5067 22.3923 21.2684 22.0587C21.1731 21.9395 21.1254 21.7727 21.1016 21.6297C21.1016 21.4628 21.1016 21.296 21.1016 21.1053C21.1254 21.0577 21.1254 21.0338 21.1254 21.01Z" fill="#E74214"/>
<path d="M46.6988 33.3321C46.0077 32.6648 45.3403 31.9498 44.959 31.0441C45.0305 30.9249 45.102 30.7819 45.1973 30.6628C45.2927 30.5436 45.4118 30.4483 45.5072 30.3291C45.96 30.4721 46.103 30.9249 46.389 31.2348C46.6512 31.5208 46.8656 31.8544 47.1278 32.1404C46.9371 32.5218 46.9372 32.9746 46.6988 33.3321Z" fill="#E74214"/>
<path d="M20.1958 22.0831C20.5056 22.2261 20.5294 22.5836 20.7201 22.8458C21.4113 23.6799 22.2693 24.0613 23.2941 23.8706C24.4143 23.6799 25.2008 22.7743 25.4153 21.7256C25.5583 21.0344 25.4153 20.4386 25.0816 19.8428C25.2246 19.8666 25.3676 19.9143 25.5106 19.9381C25.8204 20.8914 25.8919 21.8209 25.3676 22.7028C24.2951 24.5141 21.7688 24.6809 20.5294 23.0841C20.3626 22.8696 20.2911 22.5359 19.9336 22.5121C19.9813 22.3453 20.0766 22.2023 20.1958 22.0831Z" fill="#E74214"/>
<path d="M23.0804 19.9619C23.0804 20.1287 23.2234 20.1287 23.3425 20.1764C23.8669 20.4147 24.1529 20.9867 24.0099 21.4634C23.8669 21.9639 23.1757 22.5121 22.7705 22.4406C22.2462 22.3691 21.6504 21.7494 21.6027 21.2489C21.5789 20.9867 21.9364 20.8199 21.7457 20.5339C22.1509 20.2479 22.5799 20.0572 23.0804 19.9619Z" fill="#E74214"/>
<path d="M5.58594 39.7435C6.53927 39.6005 7.51644 39.4575 8.46977 39.3145C8.5651 39.6005 8.68427 39.8865 8.7796 40.1725C8.7081 40.2678 8.61277 40.3631 8.46977 40.387C7.75477 40.4823 7.0636 40.7683 6.32477 40.6015C6.03877 40.3631 5.8481 40.0295 5.58594 39.7435Z" fill="#E74214"/>
<path d="M8.25395 38.5518C8.11095 38.4565 7.96795 38.4326 7.80111 38.4564C6.84778 38.5994 5.89445 38.7424 4.94111 38.8854C4.75045 38.6948 4.58361 38.5041 4.48828 38.2419C4.55978 38.0751 4.70278 38.0036 4.86961 37.9798C5.87061 37.8129 6.87161 37.6699 7.89645 37.5508C7.94411 37.5508 7.99178 37.5746 8.03945 37.5985C8.11095 37.9321 8.18245 38.242 8.25395 38.5518Z" fill="#E74214"/>
<path d="M19.6715 23.1553C20.1243 23.6558 20.5772 24.204 21.2445 24.49C23.9377 25.6578 26.5355 23.8465 26.5355 21.0818C26.5355 20.7482 26.2733 20.486 26.321 20.1523C26.4402 20.2953 26.6785 20.1762 26.7738 20.3668C27.465 23.2268 24.8433 25.8247 21.9595 25.1335C21.6973 25.062 21.4352 24.9905 21.1968 24.8952C21.1492 24.8713 21.1015 24.8475 21.0538 24.8237C20.5772 24.4662 20.0528 24.1563 19.6715 23.6558C19.6238 23.5843 19.6 23.5128 19.5762 23.4652C19.5762 23.3698 19.6238 23.2507 19.6715 23.1553Z" fill="#E74214"/>
<path d="M19.5524 23.4653C19.5762 23.4891 19.6239 23.5368 19.6477 23.5606C19.9814 24.1088 20.5295 24.4186 21.03 24.7285C23.5325 25.944 26.0589 24.3948 26.6547 22.369C26.8454 21.7255 26.7024 21.082 26.8215 20.4385C27.0122 20.4385 27.1552 20.51 27.2744 20.653C27.1075 20.7483 27.1552 20.939 27.1314 21.082C27.0599 22.941 26.2495 24.3233 24.5335 25.1336C23.9854 25.3958 23.4134 25.3481 22.8414 25.3958C21.8404 25.4911 21.03 25.1575 20.2912 24.6093C19.9814 24.3948 19.743 24.1088 19.457 23.8705C19.4809 23.7513 19.5047 23.6083 19.5524 23.4653Z" fill="#E74214"/>
<path d="M21.2438 21.5355C21.22 21.7024 21.2677 21.8215 21.363 21.9645C21.506 22.322 21.7682 22.5604 22.1018 22.7034C22.7692 22.8702 23.3888 22.894 23.9132 22.3459C24.6043 21.6309 24.6282 20.8205 23.937 20.1055C23.8417 20.0102 23.7702 19.9149 23.6987 19.8195C24.1038 19.7242 24.509 19.6527 24.9142 19.7957C24.8427 19.7957 24.7473 19.8195 24.6758 19.8195C24.2468 19.7957 24.3422 19.9625 24.4852 20.2247C25.081 21.2972 24.7473 22.3697 23.6748 22.9179C22.5547 23.466 21.2677 22.894 20.9102 21.6785C20.8625 21.5355 20.8387 21.4164 20.791 21.2734C20.8625 21.1304 20.9578 21.035 21.1247 20.9635L21.1485 20.9874C21.2677 21.178 21.1247 21.3925 21.2438 21.5355Z" fill="#E74214"/>
<path d="M8.04071 37.599C7.03971 37.9326 5.96721 37.9326 4.94238 38.1233C4.77555 38.1471 4.63255 38.1709 4.48955 38.2424C4.29888 38.0518 4.15588 37.8373 4.06055 37.599C5.34755 37.4083 6.65838 37.2414 7.94538 37.0508C8.04071 37.2414 8.06455 37.4083 8.04071 37.599Z" fill="#E74214"/>
<path d="M47.1028 32.1406C46.5308 31.9738 46.4354 31.3541 46.0541 31.0205C45.8396 30.8298 45.6728 30.5676 45.5059 30.3293C45.6489 30.091 45.7919 29.8288 45.9588 29.5905C46.0303 29.519 46.1018 29.4475 46.1494 29.376C46.4593 30.0433 46.9836 30.52 47.4364 31.092C47.3649 31.4495 47.2696 31.807 47.1028 32.1406Z" fill="#E74214"/>
<path d="M28.2279 21.6301C28.0372 22.5835 27.8227 23.5368 27.2031 24.3471C26.2736 25.6103 25.0342 26.373 23.5089 26.5398C22.2457 26.6828 21.0064 26.4921 19.9101 25.7295C19.7432 25.6103 19.5287 25.4196 19.5287 25.8486C19.3857 25.6341 19.4334 25.4196 19.4334 25.1813C19.6002 25.0621 19.6956 25.2051 19.7909 25.2766C20.9587 26.1108 22.2696 26.4683 23.6757 26.23C25.4632 25.8963 26.7741 24.9191 27.5129 23.2031C27.7036 22.7503 27.8227 22.2975 27.8942 21.8208C27.9181 21.6778 27.8227 21.4395 28.1326 21.4395C28.1564 21.511 28.1802 21.5586 28.2279 21.6301Z" fill="#E74214"/>
<path d="M6.34766 40.6018C7.15799 40.4588 7.96832 40.3159 8.80249 40.1729C8.94549 40.4589 9.08849 40.7449 9.23149 41.0309C8.54032 41.1739 7.87299 41.3169 7.18182 41.4599C6.87199 41.2215 6.58599 40.9355 6.34766 40.6018Z" fill="#E74214"/>
<path d="M23.6035 27.8507C24.0802 27.5647 24.6522 27.5647 25.1527 27.3502C26.8687 26.6591 28.1319 25.5151 28.8707 23.7991C28.9422 23.6322 28.9183 23.3224 29.2758 23.4654C29.2997 23.6084 29.3473 23.7514 29.3712 23.8944C28.9898 23.9659 28.9899 24.3234 28.8707 24.5856C28.3464 25.6819 27.5122 26.4684 26.5112 27.0881C26.4635 27.1119 26.3682 27.1119 26.2967 27.1119C25.82 27.3741 25.3433 27.6362 24.7952 27.7554C24.39 27.8507 24.0325 28.1129 23.6035 27.8507Z" fill="#E74214"/>
<path d="M19.0997 1.32422C19.0759 2.01539 18.6707 2.58738 18.4562 3.20705C18.4085 3.32622 18.3847 3.44538 18.337 3.56455C18.1702 3.65988 17.9795 3.63605 17.8127 3.58839C17.7412 3.58839 17.6697 3.58839 17.5982 3.58839C17.3599 3.58839 17.0977 3.56455 16.8594 3.56455C17.4075 3.56455 17.5505 3.18322 17.7174 2.75422C17.8604 2.34905 17.9795 1.92005 18.2655 1.56255C18.5277 1.41955 18.7899 1.32422 19.0997 1.32422Z" fill="#E74214"/>
<path d="M28.1074 21.4391C27.8452 21.7966 27.9167 22.2494 27.7975 22.6546C27.2732 24.7281 25.1997 26.3488 23.0785 26.3726C21.7915 26.3964 20.6237 26.0389 19.6227 25.2524C19.575 25.2047 19.4797 25.2048 19.432 25.1809C19.432 25.1094 19.432 25.0379 19.4082 24.9664C19.8372 25.2048 20.2424 25.4907 20.6952 25.7052C23.1024 26.8731 25.9385 25.9436 27.2255 23.5841C27.5354 23.0121 27.8214 22.3686 27.7737 21.6774C27.7737 21.4867 27.8214 21.3676 28.012 21.3438C28.0835 21.3437 28.1312 21.3676 28.1074 21.4391Z" fill="#E74214"/>
<path d="M26.8208 20.4625C27.226 21.9402 26.5586 23.4894 25.1525 24.538C24.0085 25.3722 22.7691 25.4437 21.4583 25.0624C21.2915 25.0147 21.1723 24.8717 21.0293 24.7764C21.649 24.8717 22.221 25.0624 22.8406 25.11C24.3421 25.253 26.2488 23.8707 26.6063 22.1547C26.7255 21.6304 26.7731 21.106 26.654 20.5817C26.6301 20.4864 26.654 20.4149 26.7493 20.3672C26.7731 20.391 26.797 20.4387 26.8208 20.4625Z" fill="#E74214"/>
<path d="M23.6023 27.8501C24.0075 27.9216 24.3888 27.731 24.7702 27.7548C24.0075 28.1838 23.1495 28.1838 22.3153 28.1361C21.6957 28.1123 21.0998 27.8025 20.4802 27.8978C20.2657 27.731 20.0988 27.4926 20.0273 27.2305C20.5517 27.3258 21.0283 27.5165 21.5288 27.6595C22.22 27.874 22.935 27.6356 23.6023 27.8501Z" fill="#E74214"/>
<path d="M19.5508 26.1582C19.7653 26.2059 19.9559 26.2774 20.0751 26.468C19.9559 26.468 19.8129 26.4442 19.7414 26.5872C19.6699 26.4442 19.6223 26.3012 19.5508 26.1582Z" fill="#E74214"/>
<path d="M31.9685 13.7412C31.9685 13.765 31.9685 13.7889 31.9685 13.8365C31.7302 13.8604 31.4918 13.8842 31.2773 13.765C31.5157 13.7412 31.7302 13.7412 31.9685 13.7412Z" fill="#E74214"/>
<path d="M14.7145 34.2863C14.6906 34.2625 14.643 34.2148 14.6191 34.191C14.8098 34.1671 15.0005 34.1671 15.1673 34.2625C15.0958 34.2625 15.0005 34.2863 14.929 34.2863C14.8575 34.2863 14.786 34.2863 14.7145 34.2863Z" fill="#E74214"/>
<path d="M24.7949 27.7548C25.2954 27.5165 25.7721 27.2543 26.2964 27.1113C25.8674 27.4927 25.3908 27.7787 24.7949 27.7548Z" fill="#E74214"/>
<path d="M24.4609 0.775391C24.8184 0.775391 25.1759 0.775391 25.5334 0.775391C25.2235 1.82406 24.7469 2.82505 24.3417 3.82605C24.1272 4.37422 23.9842 4.97005 23.6029 5.44672C23.3407 5.27988 23.1024 5.11306 22.8402 4.94622C22.7449 4.80322 22.7925 4.68405 22.8402 4.54105C23.293 3.37322 23.7697 2.20538 24.2464 1.03755C24.294 0.966051 24.3655 0.870724 24.4609 0.775391Z" fill="#E74214"/>
<path d="M24.4611 0.776162C23.9606 2.06316 23.4363 3.37399 22.9358 4.66099C22.8881 4.75633 22.8643 4.85166 22.8404 4.97082C22.5306 4.85166 22.2446 4.73249 21.9824 4.51799C22.1493 4.42266 22.2446 4.30349 22.3161 4.13666C22.6498 3.25482 23.0549 2.39682 23.3648 1.51499C23.5554 0.919156 23.8414 0.656995 24.4611 0.776162Z" fill="#E74214"/>
<path d="M17.8125 3.58829C17.9793 3.58829 18.17 3.56445 18.3368 3.56445C18.4083 3.58829 18.4798 3.63595 18.5752 3.65979C18.3368 3.63595 18.0508 3.75512 17.8125 3.58829Z" fill="#E74214"/>
<path d="M44.4091 31.4973C44.3376 31.5688 44.2661 31.6403 44.1946 31.7356C43.9324 31.974 43.6941 32.2361 43.4319 32.4745C43.2174 32.6175 43.0029 32.7843 42.7884 32.9273C42.5024 33.0941 42.2164 33.2848 41.9304 33.4516C41.6444 33.5946 41.3584 33.7376 41.0724 33.8806C40.7864 33.9998 40.5004 34.0951 40.2144 34.2143C39.8807 34.3096 39.5709 34.4288 39.2372 34.5241C39.0227 34.5241 38.8082 34.5241 38.5938 34.5241C38.5938 33.976 38.5938 33.4278 38.5938 32.8558C38.5938 32.5698 38.7129 32.4268 38.9751 32.3791C40.5719 32.0693 42.1687 31.7356 43.7656 31.4258C43.9801 31.3781 44.2184 31.3305 44.4091 31.4973Z" fill="#E74214"/>
<path d="M20.291 26.5879C20.863 26.6832 21.3873 26.9454 21.9832 27.0407C22.8888 27.2076 23.7468 27.0407 24.6048 26.8501C24.7002 26.8262 24.8193 26.8262 24.9147 26.8024C24.1758 27.2314 23.3417 27.3506 22.5313 27.2552C21.7448 27.1361 20.9345 27.0884 20.291 26.5879Z" fill="#E74214"/>
<path d="M24.8906 26.8017C25.2958 26.5395 25.701 26.2774 26.1776 26.1582C25.8201 26.5157 25.3911 26.7064 24.8906 26.8017Z" fill="#E74214"/>
<path d="M22.1021 22.7261C21.6731 22.6546 21.4348 22.3925 21.3633 21.9873C21.6016 22.2256 21.8638 22.464 22.1021 22.7261Z" fill="#E74214"/>
<path d="M21.2434 21.5341C21.0765 21.3911 21.148 21.2004 21.148 21.0098C21.3149 21.1766 21.2195 21.3673 21.2434 21.5341Z" fill="#E74214"/>
<path d="M22.1016 21.2004C22.1016 20.8429 22.5306 20.4616 22.8881 20.4854C23.2217 20.5093 23.6031 20.8906 23.6031 21.2243C23.6031 21.5818 23.1979 21.9869 22.8404 21.9631C22.4829 21.9631 22.1016 21.5579 22.1016 21.2004Z" fill="#E74214"/>
<path d="M21.0288 24.7518C20.4568 24.4896 19.861 24.2513 19.6465 23.584C20.0993 23.9653 20.576 24.3705 21.0288 24.7518Z" fill="#E74214"/>
<path d="M63.2409 18.0751C64.8854 18.0751 66.083 18.4326 66.8338 19.1476C67.5964 19.8507 67.9778 20.8219 67.9778 22.0613C67.9778 22.8001 67.8228 23.4972 67.513 24.1526C67.2032 24.7961 66.6848 25.3145 65.9579 25.7078C65.2429 26.101 64.2657 26.2976 63.0264 26.2976H61.8645V30.8379H59.1654V18.0751H63.2409ZM63.0979 20.2916H61.8645V24.0811H62.7583C63.5209 24.0811 64.1227 23.9322 64.5636 23.6343C65.0165 23.3244 65.2429 22.8299 65.2429 22.1506C65.2429 20.9113 64.5279 20.2916 63.0979 20.2916ZM81.9726 24.4386C81.9726 25.7614 81.7522 26.9173 81.3113 27.9064C80.8823 28.8836 80.2209 29.6462 79.3271 30.1944C78.4334 30.7426 77.2894 31.0166 75.8951 31.0166C74.5128 31.0166 73.3688 30.7426 72.4631 30.1944C71.5694 29.6462 70.9021 28.8776 70.4611 27.8885C70.0321 26.8994 69.8176 25.7435 69.8176 24.4208C69.8176 23.098 70.0321 21.9481 70.4611 20.9709C70.9021 19.9937 71.5694 19.237 72.4631 18.7008C73.3688 18.1526 74.5188 17.8785 75.913 17.8785C77.2953 17.8785 78.4334 18.1526 79.3271 18.7008C80.2209 19.237 80.8823 19.9997 81.3113 20.9888C81.7522 21.9659 81.9726 23.1159 81.9726 24.4386ZM72.6598 24.4386C72.6598 25.7733 72.916 26.8279 73.4284 27.6025C73.9408 28.3652 74.7631 28.7465 75.8951 28.7465C77.0511 28.7465 77.8793 28.3652 78.3798 27.6025C78.8803 26.8279 79.1305 25.7733 79.1305 24.4386C79.1305 23.0921 78.8803 22.0374 78.3798 21.2748C77.8793 20.5121 77.057 20.1308 75.913 20.1308C74.769 20.1308 73.9408 20.5121 73.4284 21.2748C72.916 22.0374 72.6598 23.0921 72.6598 24.4386ZM90.0324 20.1486C88.9957 20.1486 88.2032 20.5359 87.6551 21.3105C87.1069 22.0851 86.8328 23.1457 86.8328 24.4923C86.8328 25.8508 87.0831 26.9054 87.5836 27.6561C88.096 28.395 88.9123 28.7644 90.0324 28.7644C90.5568 28.7644 91.0752 28.7048 91.5876 28.5856C92.1119 28.4665 92.6779 28.2996 93.2857 28.0851V30.3553C92.7256 30.5817 92.1715 30.7485 91.6233 30.8558C91.0752 30.963 90.4614 31.0166 89.7822 31.0166C88.4714 31.0166 87.3869 30.7485 86.5289 30.2123C85.6829 29.6641 85.0572 28.9014 84.6521 27.9243C84.2469 26.9352 84.0443 25.7852 84.0443 24.4744C84.0443 23.1874 84.2767 22.0493 84.7414 21.0603C85.2062 20.0712 85.8795 19.2966 86.7613 18.7365C87.6551 18.1764 88.7454 17.8964 90.0324 17.8964C90.664 17.8964 91.2956 17.9798 91.9272 18.1466C92.5707 18.3016 93.1844 18.5161 93.7683 18.7901L92.8924 20.9888C92.4158 20.7623 91.9332 20.5657 91.4446 20.3989C90.9679 20.2321 90.4972 20.1486 90.0324 20.1486ZM104.131 30.8379L102.594 26.8875H97.5349L96.0155 30.8379H94.3889L99.376 18.0215H100.824L105.793 30.8379H104.131ZM100.681 21.5965C100.645 21.5012 100.586 21.3284 100.502 21.0781C100.419 20.8279 100.335 20.5717 100.252 20.3095C100.18 20.0354 100.121 19.8269 100.073 19.6839C99.9897 20.0533 99.8944 20.4168 99.7872 20.7743C99.6799 21.1198 99.5905 21.3939 99.519 21.5965L98.0712 25.4575H102.111L100.681 21.5965ZM110.322 30.8379H108.713V19.4873H104.727V18.0751H114.29V19.4873H110.322V30.8379ZM127.002 24.4386C127.002 25.7614 126.775 26.9173 126.322 27.9064C125.882 28.8836 125.226 29.6462 124.356 30.1944C123.486 30.7426 122.408 31.0166 121.121 31.0166C119.798 31.0166 118.696 30.7426 117.814 30.1944C116.944 29.6462 116.295 28.8776 115.866 27.8885C115.437 26.8994 115.222 25.7435 115.222 24.4208C115.222 23.1099 115.437 21.9659 115.866 20.9888C116.295 20.0116 116.944 19.2489 117.814 18.7008C118.696 18.1526 119.804 17.8785 121.139 17.8785C122.414 17.8785 123.486 18.1526 124.356 18.7008C125.226 19.237 125.882 19.9997 126.322 20.9888C126.775 21.9659 127.002 23.1159 127.002 24.4386ZM116.92 24.4386C116.92 26.0474 117.26 27.3165 117.939 28.246C118.618 29.1636 119.679 29.6224 121.121 29.6224C122.575 29.6224 123.635 29.1636 124.303 28.246C124.97 27.3165 125.304 26.0474 125.304 24.4386C125.304 22.8299 124.97 21.5727 124.303 20.667C123.635 19.7494 122.581 19.2906 121.139 19.2906C119.697 19.2906 118.63 19.7494 117.939 20.667C117.26 21.5727 116.92 22.8299 116.92 24.4386ZM135.461 30.8379L131.26 19.6481H131.189C131.225 20.0176 131.254 20.5181 131.278 21.1496C131.302 21.7693 131.314 22.4188 131.314 23.098V30.8379H129.83V18.0751H132.208L136.14 28.532H136.212L140.216 18.0751H142.575V30.8379H140.984V22.9908C140.984 22.3711 140.996 21.7574 141.02 21.1496C141.056 20.5419 141.086 20.0473 141.11 19.666H141.038L136.784 30.8379H135.461Z" fill="#E74214"/>
</svg>
