<svg width="105" height="74" viewBox="0 0 105 74" fill="none" xmlns="http://www.w3.org/2000/svg">
<path d="M15.8889 55.9983C17.1309 55.9983 13.9188 55.2924 11.3391 57.7904C8.75942 60.2885 10.0232 63.6478 11.0981 64.6887C10.0232 64.3913 6.99328 63.4382 5.10936 65.5571C3.37832 67.5039 4.18804 69.7444 5.10936 70.9339" stroke="#F5F5F5" stroke-width="2" stroke-linecap="round" stroke-linejoin="round"/>
<path d="M49.7083 1L72.9026 21.4884V61.692M58.986 1L82.1804 21.4884V53.1874" stroke="#EA4C14" stroke-width="2" stroke-linecap="round" stroke-linejoin="round"/>
<path d="M23.4211 58.5995H55.8933M32.3123 58.5995V65.5578M47.0021 58.5995V65.5578M23.4211 35.0186H55.8933" stroke="#EA4C14" stroke-width="2" stroke-linecap="round" stroke-linejoin="round"/>
<path d="M16.4629 72.1295V21.875L39.6573 1M39.6573 1L63.2382 21.875M39.6573 1H66.7174L92.2312 21.875M63.2382 21.875V72.1295M63.2382 21.875H92.2312M92.2312 21.875V59.3726" stroke="#EA4C14" stroke-width="2" stroke-linecap="round" stroke-linejoin="round"/>
<path d="M55.8933 40.2494V25.8447L39.6572 11.0508L23.4211 25.8447V65.9442H39.6572H55.8933V40.2494Z" stroke="#EA4C14" stroke-width="2" stroke-linecap="round" stroke-linejoin="round"/>
<path d="M1 72.1289H103.442" stroke="#F5F5F5" stroke-width="2" stroke-linecap="round" stroke-linejoin="round"/>
<path d="M68.8021 71.5321C67.5604 70.5364 65.5736 67.7086 67.5604 64.3629C69.5471 61.0173 73.355 61.3758 75.0106 61.9732C73.9759 58.9861 73.6447 53.0117 80.5984 53.0117C87.552 53.0117 88.4626 58.9861 88.0487 61.9732C88.2556 60.3801 90.5321 58.3886 93.6364 59.5835C96.2144 60.5757 95.706 63.7655 95.499 64.9603C96.3268 64.5621 100.342 63.7655 101.087 67.3501C101.583 69.7398 100.052 70.7355 99.845 71.5321H68.8021Z" stroke="#F5F5F5" stroke-width="2" stroke-linecap="round" stroke-linejoin="round"/>
</svg>
